<mxfile host="Electron" agent="Mozilla/5.0 (Windows NT 10.0; Win64; x64) AppleWebKit/537.36 (KHTML, like Gecko) draw.io/27.0.9 Chrome/134.0.6998.205 Electron/35.4.0 Safari/537.36" version="27.0.9">
  <diagram name="Page-1" id="uOgO_LtnpNgbNpRODR7z">
    <mxGraphModel dx="14600" dy="2750" grid="1" gridSize="10" guides="1" tooltips="1" connect="1" arrows="1" fold="1" page="1" pageScale="1" pageWidth="3300" pageHeight="4681" math="0" shadow="0">
      <root>
        <mxCell id="0" />
        <mxCell id="1" parent="0" />
        <mxCell id="D2uAuJA1LaHFy1BpvuMR-8" value="Employee&lt;br style=&quot;font-size: 20px;&quot;&gt;" style="shape=umlActor;verticalLabelPosition=bottom;verticalAlign=top;html=1;fontSize=20;fontStyle=1;strokeWidth=2;" parent="1" vertex="1">
          <mxGeometry x="-9570.000000000002" y="660" width="50" height="90" as="geometry" />
        </mxCell>
        <mxCell id="D2uAuJA1LaHFy1BpvuMR-13" value="Manager&lt;br style=&quot;font-size: 20px;&quot;&gt;" style="shape=umlActor;verticalLabelPosition=bottom;verticalAlign=top;html=1;fontSize=20;fontStyle=1;strokeWidth=2;" parent="1" vertex="1">
          <mxGeometry x="-9600" y="5716" width="40" height="80" as="geometry" />
        </mxCell>
        <mxCell id="D2uAuJA1LaHFy1BpvuMR-14" value="Check Leave Request" style="ellipse;whiteSpace=wrap;html=1;fontSize=20;fontStyle=1;strokeWidth=2;" parent="1" vertex="1">
          <mxGeometry x="-8723.1" y="5251" width="375" height="75" as="geometry" />
        </mxCell>
        <mxCell id="D2uAuJA1LaHFy1BpvuMR-16" value="Assign Task" style="ellipse;whiteSpace=wrap;html=1;fontSize=20;fontStyle=1;strokeWidth=2;" parent="1" vertex="1">
          <mxGeometry x="-8727.070000000002" y="5591" width="375" height="75" as="geometry" />
        </mxCell>
        <mxCell id="D2uAuJA1LaHFy1BpvuMR-17" value="Generate Salary Report" style="ellipse;whiteSpace=wrap;html=1;fontSize=20;fontStyle=1;strokeWidth=2;" parent="1" vertex="1">
          <mxGeometry x="-8739.070000000002" y="5821" width="375" height="75" as="geometry" />
        </mxCell>
        <mxCell id="D2uAuJA1LaHFy1BpvuMR-22" value="Accountant" style="shape=umlActor;verticalLabelPosition=bottom;verticalAlign=top;html=1;fontSize=20;fontStyle=1;strokeWidth=2;" parent="1" vertex="1">
          <mxGeometry x="-9366.5" y="2495" width="39" height="70" as="geometry" />
        </mxCell>
        <mxCell id="D2uAuJA1LaHFy1BpvuMR-25" value="Check Loan eligibility." style="ellipse;whiteSpace=wrap;html=1;fontSize=20;fontStyle=1;strokeWidth=2;" parent="1" vertex="1">
          <mxGeometry x="-8664.16" y="2522" width="357" height="75" as="geometry" />
        </mxCell>
        <mxCell id="D2uAuJA1LaHFy1BpvuMR-26" value="Approve Loan" style="ellipse;whiteSpace=wrap;html=1;fontSize=20;fontStyle=1;strokeWidth=2;" parent="1" vertex="1">
          <mxGeometry x="-8725.070000000002" y="5071" width="375" height="70" as="geometry" />
        </mxCell>
        <mxCell id="D2uAuJA1LaHFy1BpvuMR-28" value="&lt;font style=&quot;font-size: 20px;&quot;&gt;Generate attendance Report&lt;/font&gt;" style="ellipse;whiteSpace=wrap;html=1;fontSize=20;fontStyle=1;strokeWidth=2;" parent="1" vertex="1">
          <mxGeometry x="-8717.710000000001" y="6661" width="375" height="80" as="geometry" />
        </mxCell>
        <mxCell id="D2uAuJA1LaHFy1BpvuMR-29" value="&lt;font style=&quot;font-size: 20px;&quot;&gt;Generate OT Report&lt;/font&gt;" style="ellipse;whiteSpace=wrap;html=1;fontSize=20;fontStyle=1;strokeWidth=2;" parent="1" vertex="1">
          <mxGeometry x="-8731.710000000001" y="6211" width="375" height="80" as="geometry" />
        </mxCell>
        <mxCell id="D2uAuJA1LaHFy1BpvuMR-30" value="&lt;font style=&quot;font-size: 20px;&quot;&gt;Generate Increment Report&lt;/font&gt;" style="ellipse;whiteSpace=wrap;html=1;fontSize=20;fontStyle=1;strokeWidth=2;" parent="1" vertex="1">
          <mxGeometry x="-8735.210000000001" y="6021" width="375" height="80" as="geometry" />
        </mxCell>
        <mxCell id="D2uAuJA1LaHFy1BpvuMR-34" value="&lt;font style=&quot;font-size: 20px;&quot;&gt;Generate Training Report&lt;/font&gt;" style="ellipse;whiteSpace=wrap;html=1;fontSize=20;fontStyle=1;strokeWidth=2;" parent="1" vertex="1">
          <mxGeometry x="-8720.710000000001" y="6841" width="375" height="70" as="geometry" />
        </mxCell>
        <mxCell id="D2uAuJA1LaHFy1BpvuMR-35" value="&lt;font style=&quot;font-size: 20px;&quot;&gt;Generate Leave Report&lt;/font&gt;" style="ellipse;whiteSpace=wrap;html=1;fontSize=20;fontStyle=1;strokeWidth=2;" parent="1" vertex="1">
          <mxGeometry x="-8712.460000000001" y="7081" width="375" height="70" as="geometry" />
        </mxCell>
        <mxCell id="D2uAuJA1LaHFy1BpvuMR-41" value="&lt;font style=&quot;font-size: 20px;&quot;&gt;Generate staff Loan&amp;nbsp;&lt;/font&gt;&lt;div&gt;&lt;font style=&quot;font-size: 20px;&quot;&gt;request report&lt;/font&gt;&lt;/div&gt;" style="ellipse;whiteSpace=wrap;html=1;fontSize=20;fontStyle=1;strokeWidth=2;" parent="1" vertex="1">
          <mxGeometry x="-8714.42" y="7271" width="375" height="70" as="geometry" />
        </mxCell>
        <mxCell id="D2uAuJA1LaHFy1BpvuMR-42" value="&lt;font style=&quot;font-size: 20px;&quot;&gt;Generate home loan&amp;nbsp;&lt;/font&gt;&lt;div&gt;&lt;font style=&quot;font-size: 20px;&quot;&gt;request Report&lt;/font&gt;&lt;/div&gt;" style="ellipse;whiteSpace=wrap;html=1;fontSize=20;fontStyle=1;strokeWidth=2;" parent="1" vertex="1">
          <mxGeometry x="-8701.92" y="7541" width="375" height="70" as="geometry" />
        </mxCell>
        <mxCell id="D2uAuJA1LaHFy1BpvuMR-43" value="&lt;font style=&quot;font-size: 20px;&quot;&gt;Generate Vehicle Loan&amp;nbsp;&lt;/font&gt;&lt;div&gt;&lt;font style=&quot;font-size: 20px;&quot;&gt;Request Report&lt;/font&gt;&lt;/div&gt;" style="ellipse;whiteSpace=wrap;html=1;fontSize=20;fontStyle=1;strokeWidth=2;" parent="1" vertex="1">
          <mxGeometry x="-8699.92" y="7721" width="375" height="70" as="geometry" />
        </mxCell>
        <mxCell id="D2uAuJA1LaHFy1BpvuMR-44" value="&lt;font style=&quot;font-size: 20px;&quot;&gt;Generate Educational Loan&amp;nbsp;&lt;/font&gt;&lt;div&gt;&lt;font style=&quot;font-size: 20px;&quot;&gt;request Report&lt;/font&gt;&lt;/div&gt;" style="ellipse;whiteSpace=wrap;html=1;fontSize=20;fontStyle=1;strokeWidth=2;" parent="1" vertex="1">
          <mxGeometry x="-8693.92" y="7921" width="375" height="70" as="geometry" />
        </mxCell>
        <mxCell id="D2uAuJA1LaHFy1BpvuMR-45" value="&lt;font style=&quot;font-size: 20px;&quot;&gt;Generate Emergency Loan&amp;nbsp;&lt;/font&gt;&lt;div&gt;&lt;font style=&quot;font-size: 20px;&quot;&gt;request report&lt;/font&gt;&lt;/div&gt;" style="ellipse;whiteSpace=wrap;html=1;fontSize=20;fontStyle=1;strokeWidth=2;" parent="1" vertex="1">
          <mxGeometry x="-8689.92" y="8151" width="375" height="75" as="geometry" />
        </mxCell>
        <mxCell id="D2uAuJA1LaHFy1BpvuMR-46" value="&lt;font style=&quot;font-size: 20px;&quot;&gt;Generate product loan&amp;nbsp;&lt;/font&gt;&lt;div&gt;&lt;font style=&quot;font-size: 20px;&quot;&gt;request report&lt;/font&gt;&lt;/div&gt;" style="ellipse;whiteSpace=wrap;html=1;fontSize=20;fontStyle=1;strokeWidth=2;" parent="1" vertex="1">
          <mxGeometry x="-8684.92" y="8331" width="375" height="75" as="geometry" />
        </mxCell>
        <mxCell id="D2uAuJA1LaHFy1BpvuMR-51" value="" style="endArrow=none;endFill=0;endSize=12;html=1;rounded=0;entryX=0;entryY=0.5;entryDx=0;entryDy=0;fontSize=20;fontStyle=1;strokeWidth=2;exitX=1;exitY=0.3333333333333333;exitDx=0;exitDy=0;exitPerimeter=0;" parent="1" source="D2uAuJA1LaHFy1BpvuMR-8" target="D2uAuJA1LaHFy1BpvuMR-9" edge="1">
          <mxGeometry width="160" relative="1" as="geometry">
            <mxPoint x="-9480" y="720" as="sourcePoint" />
            <mxPoint x="-8285.29" y="700" as="targetPoint" />
          </mxGeometry>
        </mxCell>
        <mxCell id="D2uAuJA1LaHFy1BpvuMR-52" value="" style="endArrow=none;endFill=0;endSize=12;html=1;rounded=0;entryX=0;entryY=0.5;entryDx=0;entryDy=0;fontSize=20;fontStyle=1;strokeWidth=2;exitX=1;exitY=0.3333333333333333;exitDx=0;exitDy=0;exitPerimeter=0;" parent="1" source="D2uAuJA1LaHFy1BpvuMR-8" target="D2uAuJA1LaHFy1BpvuMR-10" edge="1">
          <mxGeometry width="160" relative="1" as="geometry">
            <mxPoint x="-9480" y="720" as="sourcePoint" />
            <mxPoint x="-8725.29" y="395" as="targetPoint" />
          </mxGeometry>
        </mxCell>
        <mxCell id="D2uAuJA1LaHFy1BpvuMR-53" value="" style="endArrow=none;endFill=0;endSize=12;html=1;rounded=0;entryX=0;entryY=0.5;entryDx=0;entryDy=0;fontSize=20;fontStyle=1;strokeWidth=2;exitX=1;exitY=0.3333333333333333;exitDx=0;exitDy=0;exitPerimeter=0;" parent="1" source="D2uAuJA1LaHFy1BpvuMR-8" target="D2uAuJA1LaHFy1BpvuMR-18" edge="1">
          <mxGeometry width="160" relative="1" as="geometry">
            <mxPoint x="-9480" y="720" as="sourcePoint" />
            <mxPoint x="-8715.29" y="405" as="targetPoint" />
          </mxGeometry>
        </mxCell>
        <mxCell id="D2uAuJA1LaHFy1BpvuMR-54" value="" style="endArrow=none;endFill=0;endSize=12;html=1;rounded=0;entryX=0;entryY=0.5;entryDx=0;entryDy=0;fontSize=20;fontStyle=1;strokeWidth=2;exitX=0.936;exitY=0.357;exitDx=0;exitDy=0;exitPerimeter=0;" parent="1" source="D2uAuJA1LaHFy1BpvuMR-22" target="D2uAuJA1LaHFy1BpvuMR-23" edge="1">
          <mxGeometry width="160" relative="1" as="geometry">
            <mxPoint x="-9320" y="2520" as="sourcePoint" />
            <mxPoint x="-9155.18" y="2529" as="targetPoint" />
          </mxGeometry>
        </mxCell>
        <mxCell id="D2uAuJA1LaHFy1BpvuMR-56" value="" style="endArrow=none;endFill=0;endSize=12;html=1;rounded=0;entryX=0;entryY=0.5;entryDx=0;entryDy=0;fontSize=20;fontStyle=1;strokeWidth=2;exitX=0.968;exitY=0.33;exitDx=0;exitDy=0;exitPerimeter=0;" parent="1" source="D2uAuJA1LaHFy1BpvuMR-22" target="D2uAuJA1LaHFy1BpvuMR-47" edge="1">
          <mxGeometry width="160" relative="1" as="geometry">
            <mxPoint x="-9315.18" y="2529" as="sourcePoint" />
            <mxPoint x="-9145.18" y="2529" as="targetPoint" />
          </mxGeometry>
        </mxCell>
        <mxCell id="D2uAuJA1LaHFy1BpvuMR-57" value="" style="endArrow=none;endFill=0;endSize=12;html=1;rounded=0;entryX=0;entryY=0.5;entryDx=0;entryDy=0;fontSize=20;fontStyle=1;strokeWidth=2;exitX=0.962;exitY=0.339;exitDx=0;exitDy=0;exitPerimeter=0;" parent="1" source="D2uAuJA1LaHFy1BpvuMR-22" target="D2uAuJA1LaHFy1BpvuMR-48" edge="1">
          <mxGeometry width="160" relative="1" as="geometry">
            <mxPoint x="-9315.18" y="2529" as="sourcePoint" />
            <mxPoint x="-9145.18" y="2529" as="targetPoint" />
          </mxGeometry>
        </mxCell>
        <mxCell id="D2uAuJA1LaHFy1BpvuMR-59" value="" style="endArrow=none;endFill=0;endSize=12;html=1;rounded=0;entryX=0;entryY=0.5;entryDx=0;entryDy=0;fontSize=20;fontStyle=1;strokeWidth=2;exitX=1;exitY=0.3333333333333333;exitDx=0;exitDy=0;exitPerimeter=0;" parent="1" source="D2uAuJA1LaHFy1BpvuMR-8" target="D2uAuJA1LaHFy1BpvuMR-12" edge="1">
          <mxGeometry width="160" relative="1" as="geometry">
            <mxPoint x="-9480" y="720" as="sourcePoint" />
            <mxPoint x="-9115.29" y="700" as="targetPoint" />
          </mxGeometry>
        </mxCell>
        <mxCell id="D2uAuJA1LaHFy1BpvuMR-60" value="" style="endArrow=none;endFill=0;endSize=12;html=1;rounded=0;entryX=0;entryY=0.5;entryDx=0;entryDy=0;fontSize=20;fontStyle=1;strokeWidth=2;exitX=1;exitY=0.3333333333333333;exitDx=0;exitDy=0;exitPerimeter=0;" parent="1" source="D2uAuJA1LaHFy1BpvuMR-8" target="D2uAuJA1LaHFy1BpvuMR-11" edge="1">
          <mxGeometry width="160" relative="1" as="geometry">
            <mxPoint x="-9520" y="700" as="sourcePoint" />
            <mxPoint x="-9135.29" y="700" as="targetPoint" />
          </mxGeometry>
        </mxCell>
        <mxCell id="D2uAuJA1LaHFy1BpvuMR-64" value="&lt;font style=&quot;font-size: 20px;&quot;&gt;Generate No Pay Report&lt;/font&gt;" style="ellipse;whiteSpace=wrap;html=1;fontSize=20;fontStyle=1;strokeWidth=2;" parent="1" vertex="1">
          <mxGeometry x="-8720.710000000001" y="6461" width="375" height="70" as="geometry" />
        </mxCell>
        <mxCell id="D2uAuJA1LaHFy1BpvuMR-65" value="&lt;font style=&quot;font-size: 20px;&quot;&gt;Generate Monthly Increment Report&lt;/font&gt;" style="ellipse;whiteSpace=wrap;html=1;fontSize=20;fontStyle=1;strokeWidth=2;" parent="1" vertex="1">
          <mxGeometry x="-8017.62" y="6001" width="400" height="75" as="geometry" />
        </mxCell>
        <mxCell id="D2uAuJA1LaHFy1BpvuMR-66" value="&lt;font style=&quot;font-size: 20px;&quot;&gt;Generate Annual Increment Report&lt;/font&gt;" style="ellipse;whiteSpace=wrap;html=1;fontSize=20;fontStyle=1;strokeWidth=2;" parent="1" vertex="1">
          <mxGeometry x="-8007.62" y="6111" width="400" height="75" as="geometry" />
        </mxCell>
        <mxCell id="D2uAuJA1LaHFy1BpvuMR-67" value="&lt;font style=&quot;font-size: 20px;&quot;&gt;Generate Monthly OT Report&lt;/font&gt;" style="ellipse;whiteSpace=wrap;html=1;fontSize=20;fontStyle=1;strokeWidth=2;" parent="1" vertex="1">
          <mxGeometry x="-8019.37" y="6231" width="400" height="75" as="geometry" />
        </mxCell>
        <mxCell id="D2uAuJA1LaHFy1BpvuMR-68" value="&lt;font style=&quot;font-size: 20px;&quot;&gt;Generate Annual OT Report&lt;/font&gt;" style="ellipse;whiteSpace=wrap;html=1;fontSize=20;fontStyle=1;strokeWidth=2;" parent="1" vertex="1">
          <mxGeometry x="-8022.919999999999" y="6321" width="400" height="75" as="geometry" />
        </mxCell>
        <mxCell id="D2uAuJA1LaHFy1BpvuMR-69" value="&lt;font style=&quot;font-size: 20px;&quot;&gt;Generate Monthly No Pay Report&lt;/font&gt;" style="ellipse;whiteSpace=wrap;html=1;fontSize=20;fontStyle=1;strokeWidth=2;" parent="1" vertex="1">
          <mxGeometry x="-8011.750000000001" y="6431" width="400" height="75" as="geometry" />
        </mxCell>
        <mxCell id="D2uAuJA1LaHFy1BpvuMR-70" value="&lt;font style=&quot;font-size: 20px;&quot;&gt;Generate Annual No Pay Report&lt;/font&gt;" style="ellipse;whiteSpace=wrap;html=1;fontSize=20;fontStyle=1;strokeWidth=2;" parent="1" vertex="1">
          <mxGeometry x="-7987.62" y="6556" width="400" height="75" as="geometry" />
        </mxCell>
        <mxCell id="D2uAuJA1LaHFy1BpvuMR-71" value="Generate Annual Attendance Report" style="ellipse;whiteSpace=wrap;html=1;fontSize=20;fontStyle=1;strokeWidth=2;" parent="1" vertex="1">
          <mxGeometry x="-8017.62" y="6751" width="400" height="75" as="geometry" />
        </mxCell>
        <mxCell id="D2uAuJA1LaHFy1BpvuMR-72" value="&lt;font style=&quot;font-size: 20px;&quot;&gt;Generate Monthly Training Report&lt;/font&gt;" style="ellipse;whiteSpace=wrap;html=1;fontSize=20;fontStyle=1;strokeWidth=2;" parent="1" vertex="1">
          <mxGeometry x="-8019.37" y="6848.5" width="400" height="75" as="geometry" />
        </mxCell>
        <mxCell id="D2uAuJA1LaHFy1BpvuMR-73" value="&lt;font style=&quot;font-size: 20px;&quot;&gt;Generate Annual Training Report&lt;/font&gt;" style="ellipse;whiteSpace=wrap;html=1;fontSize=20;fontStyle=1;strokeWidth=2;" parent="1" vertex="1">
          <mxGeometry x="-8021.12" y="6951" width="400" height="75" as="geometry" />
        </mxCell>
        <mxCell id="D2uAuJA1LaHFy1BpvuMR-74" value="&lt;font style=&quot;font-size: 20px;&quot;&gt;Generate Monthly Leave Report&lt;/font&gt;" style="ellipse;whiteSpace=wrap;html=1;fontSize=20;fontStyle=1;strokeWidth=2;" parent="1" vertex="1">
          <mxGeometry x="-8022.919999999999" y="7061" width="400" height="75" as="geometry" />
        </mxCell>
        <mxCell id="D2uAuJA1LaHFy1BpvuMR-75" value="&lt;font style=&quot;font-size: 20px;&quot;&gt;Generate Annual Leave Report&lt;/font&gt;" style="ellipse;whiteSpace=wrap;html=1;fontSize=20;fontStyle=1;strokeWidth=2;" parent="1" vertex="1">
          <mxGeometry x="-8017.62" y="7161" width="400" height="75" as="geometry" />
        </mxCell>
        <mxCell id="D2uAuJA1LaHFy1BpvuMR-76" value="&lt;font style=&quot;font-size: 20px;&quot;&gt;Generate Monthly Staff Loan request report&lt;/font&gt;" style="ellipse;whiteSpace=wrap;html=1;fontSize=20;fontStyle=1;strokeWidth=2;" parent="1" vertex="1">
          <mxGeometry x="-8002.959999999998" y="7286" width="400" height="75" as="geometry" />
        </mxCell>
        <mxCell id="D2uAuJA1LaHFy1BpvuMR-77" value="&lt;font style=&quot;font-size: 20px;&quot;&gt;Generate Annual Staff Loan request report&lt;/font&gt;" style="ellipse;whiteSpace=wrap;html=1;fontSize=20;fontStyle=1;strokeWidth=2;" parent="1" vertex="1">
          <mxGeometry x="-8017.62" y="7391" width="400" height="75" as="geometry" />
        </mxCell>
        <mxCell id="D2uAuJA1LaHFy1BpvuMR-78" value="&lt;font style=&quot;font-size: 20px;&quot;&gt;Generate Monthly home Loan request report&lt;/font&gt;" style="ellipse;whiteSpace=wrap;html=1;fontSize=20;fontStyle=1;strokeWidth=2;" parent="1" vertex="1">
          <mxGeometry x="-8034.599999999999" y="7508.5" width="422.85" height="60" as="geometry" />
        </mxCell>
        <mxCell id="D2uAuJA1LaHFy1BpvuMR-79" value="&lt;font style=&quot;font-size: 20px;&quot;&gt;Generate Annual home Loan request report&lt;/font&gt;" style="ellipse;whiteSpace=wrap;html=1;fontSize=20;fontStyle=1;strokeWidth=2;" parent="1" vertex="1">
          <mxGeometry x="-8029.04" y="7586" width="422.85" height="85" as="geometry" />
        </mxCell>
        <mxCell id="D2uAuJA1LaHFy1BpvuMR-80" value="&lt;font style=&quot;font-size: 20px;&quot;&gt;Generate Monthly Vehicle Loan request report&lt;/font&gt;" style="ellipse;whiteSpace=wrap;html=1;fontSize=20;fontStyle=1;strokeWidth=2;" parent="1" vertex="1">
          <mxGeometry x="-8023.169999999999" y="7693.5" width="400" height="75" as="geometry" />
        </mxCell>
        <mxCell id="D2uAuJA1LaHFy1BpvuMR-81" value="&lt;font style=&quot;font-size: 20px;&quot;&gt;Generate Annual Vehicle Loan request report&lt;/font&gt;" style="ellipse;whiteSpace=wrap;html=1;fontSize=20;fontStyle=1;strokeWidth=2;" parent="1" vertex="1">
          <mxGeometry x="-8023.169999999999" y="7801" width="400" height="75" as="geometry" />
        </mxCell>
        <mxCell id="D2uAuJA1LaHFy1BpvuMR-82" value="&lt;font style=&quot;font-size: 20px;&quot;&gt;Generate Monthly Educational Loan request report&lt;/font&gt;" style="ellipse;whiteSpace=wrap;html=1;fontSize=20;fontStyle=1;strokeWidth=2;" parent="1" vertex="1">
          <mxGeometry x="-8034.599999999999" y="7896" width="526.09" height="75" as="geometry" />
        </mxCell>
        <mxCell id="D2uAuJA1LaHFy1BpvuMR-83" value="&lt;font style=&quot;font-size: 20px;&quot;&gt;Generate Annual Educational Loan request report&lt;/font&gt;" style="ellipse;whiteSpace=wrap;html=1;fontSize=20;fontStyle=1;strokeWidth=2;" parent="1" vertex="1">
          <mxGeometry x="-8019.37" y="7991" width="466.09" height="75" as="geometry" />
        </mxCell>
        <mxCell id="D2uAuJA1LaHFy1BpvuMR-84" value="&lt;font style=&quot;font-size: 20px;&quot;&gt;Generate Monthly Emergency Loan&lt;/font&gt;&lt;div&gt;&lt;font style=&quot;font-size: 20px;&quot;&gt;&amp;nbsp;request report&lt;/font&gt;&lt;/div&gt;" style="ellipse;whiteSpace=wrap;html=1;fontSize=20;fontStyle=1;strokeWidth=2;" parent="1" vertex="1">
          <mxGeometry x="-8009.62" y="8101" width="442" height="90" as="geometry" />
        </mxCell>
        <mxCell id="D2uAuJA1LaHFy1BpvuMR-85" value="&lt;font style=&quot;font-size: 20px;&quot;&gt;Generate Annual Emergency Loan request report&lt;/font&gt;" style="ellipse;whiteSpace=wrap;html=1;fontSize=20;fontStyle=1;strokeWidth=2;" parent="1" vertex="1">
          <mxGeometry x="-8019.37" y="8201" width="456.6" height="105" as="geometry" />
        </mxCell>
        <mxCell id="D2uAuJA1LaHFy1BpvuMR-86" value="&lt;font style=&quot;font-size: 20px;&quot;&gt;Generate Monthly Product Loan request report&lt;/font&gt;" style="ellipse;whiteSpace=wrap;html=1;fontSize=20;fontStyle=1;strokeWidth=2;" parent="1" vertex="1">
          <mxGeometry x="-8011.750000000001" y="8326" width="436.45" height="85" as="geometry" />
        </mxCell>
        <mxCell id="D2uAuJA1LaHFy1BpvuMR-87" value="&lt;font style=&quot;font-size: 20px;&quot;&gt;Generate Annual Product Loan request report&lt;/font&gt;" style="ellipse;whiteSpace=wrap;html=1;fontSize=20;fontStyle=1;strokeWidth=2;" parent="1" vertex="1">
          <mxGeometry x="-8002.950000000002" y="8421" width="400" height="90" as="geometry" />
        </mxCell>
        <mxCell id="D2uAuJA1LaHFy1BpvuMR-88" value="&lt;font style=&quot;font-size: 20px;&quot;&gt;Generate Annual Salary Report&lt;/font&gt;" style="ellipse;whiteSpace=wrap;html=1;fontSize=20;fontStyle=1;strokeWidth=2;" parent="1" vertex="1">
          <mxGeometry x="-8017.62" y="5896" width="400" height="75" as="geometry" />
        </mxCell>
        <mxCell id="D2uAuJA1LaHFy1BpvuMR-89" value="&lt;font style=&quot;font-size: 20px;&quot;&gt;Generate Monthly Salary Report&lt;/font&gt;" style="ellipse;whiteSpace=wrap;html=1;fontSize=20;fontStyle=1;strokeWidth=2;" parent="1" vertex="1">
          <mxGeometry x="-8011.739999999999" y="5791" width="400" height="75" as="geometry" />
        </mxCell>
        <mxCell id="D2uAuJA1LaHFy1BpvuMR-90" value="&lt;font style=&quot;font-size: 20px;&quot;&gt;Check Available Leave Balance&lt;/font&gt;" style="ellipse;whiteSpace=wrap;html=1;fontSize=20;fontStyle=1;strokeWidth=2;" parent="1" vertex="1">
          <mxGeometry x="-8194.73" y="5293.5" width="386.64" height="75" as="geometry" />
        </mxCell>
        <mxCell id="D2uAuJA1LaHFy1BpvuMR-91" value="&lt;font style=&quot;font-size: 20px;&quot;&gt;Check Loan Request&lt;/font&gt;" style="ellipse;whiteSpace=wrap;html=1;fontSize=20;fontStyle=1;strokeWidth=2;" parent="1" vertex="1">
          <mxGeometry x="-8732.33" y="4871" width="375" height="80" as="geometry" />
        </mxCell>
        <mxCell id="D2uAuJA1LaHFy1BpvuMR-92" value="&lt;font style=&quot;font-size: 20px;&quot;&gt;View Profile&lt;/font&gt;" style="ellipse;whiteSpace=wrap;html=1;fontSize=20;fontStyle=1;strokeWidth=2;" parent="1" vertex="1">
          <mxGeometry x="-8699.919999999998" y="1860" width="375" height="80" as="geometry" />
        </mxCell>
        <mxCell id="D2uAuJA1LaHFy1BpvuMR-93" value="" style="endArrow=none;html=1;rounded=0;entryX=0;entryY=0.5;entryDx=0;entryDy=0;fontSize=20;fontStyle=1;strokeWidth=2;exitX=1;exitY=0.3333333333333333;exitDx=0;exitDy=0;exitPerimeter=0;" parent="1" source="D2uAuJA1LaHFy1BpvuMR-8" target="D2uAuJA1LaHFy1BpvuMR-92" edge="1">
          <mxGeometry width="50" height="50" relative="1" as="geometry">
            <mxPoint x="-9480" y="720" as="sourcePoint" />
            <mxPoint x="-8786.29" y="1298.727361505682" as="targetPoint" />
          </mxGeometry>
        </mxCell>
        <mxCell id="D2uAuJA1LaHFy1BpvuMR-94" value="Approve Staff Loan" style="ellipse;whiteSpace=wrap;html=1;fontSize=20;fontStyle=1;strokeWidth=2;" parent="1" vertex="1">
          <mxGeometry x="-8182.960000000003" y="4711" width="277" height="70" as="geometry" />
        </mxCell>
        <mxCell id="D2uAuJA1LaHFy1BpvuMR-95" value="&lt;font style=&quot;font-size: 20px;&quot;&gt;Approve Home Loan&lt;/font&gt;" style="ellipse;whiteSpace=wrap;html=1;fontSize=20;fontStyle=1;strokeWidth=2;" parent="1" vertex="1">
          <mxGeometry x="-8146.26" y="4791" width="281" height="70" as="geometry" />
        </mxCell>
        <mxCell id="D2uAuJA1LaHFy1BpvuMR-96" value="&lt;font style=&quot;font-size: 20px;&quot;&gt;Approve Vehicle Loan&lt;/font&gt;" style="ellipse;whiteSpace=wrap;html=1;fontSize=20;fontStyle=1;strokeWidth=2;" parent="1" vertex="1">
          <mxGeometry x="-8150.300000000001" y="4881" width="281" height="70" as="geometry" />
        </mxCell>
        <mxCell id="D2uAuJA1LaHFy1BpvuMR-97" value="&lt;font style=&quot;font-size: 20px;&quot;&gt;Approve Educational Loan&lt;/font&gt;" style="ellipse;whiteSpace=wrap;html=1;fontSize=20;fontStyle=1;strokeWidth=2;" parent="1" vertex="1">
          <mxGeometry x="-8129.210000000001" y="4971" width="281" height="70" as="geometry" />
        </mxCell>
        <mxCell id="D2uAuJA1LaHFy1BpvuMR-98" value="&lt;font style=&quot;font-size: 20px;&quot;&gt;Approve Emergency Loan&lt;/font&gt;" style="ellipse;whiteSpace=wrap;html=1;fontSize=20;fontStyle=1;strokeWidth=2;" parent="1" vertex="1">
          <mxGeometry x="-8112.499999999998" y="5071" width="281" height="70" as="geometry" />
        </mxCell>
        <mxCell id="D2uAuJA1LaHFy1BpvuMR-99" value="&lt;font style=&quot;font-size: 20px;&quot;&gt;Approve Products Loan&lt;/font&gt;" style="ellipse;whiteSpace=wrap;html=1;fontSize=20;fontStyle=1;strokeWidth=2;" parent="1" vertex="1">
          <mxGeometry x="-8137.300000000001" y="5171" width="281" height="70" as="geometry" />
        </mxCell>
        <mxCell id="D2uAuJA1LaHFy1BpvuMR-109" value="" style="endArrow=none;html=1;rounded=0;entryX=0;entryY=0.5;entryDx=0;entryDy=0;fontSize=20;fontStyle=1;strokeWidth=2;exitX=1;exitY=0.3333333333333333;exitDx=0;exitDy=0;exitPerimeter=0;" parent="1" source="D2uAuJA1LaHFy1BpvuMR-8" target="D2uAuJA1LaHFy1BpvuMR-108" edge="1">
          <mxGeometry width="50" height="50" relative="1" as="geometry">
            <mxPoint x="-9480" y="720" as="sourcePoint" />
            <mxPoint x="-8376.29" y="530" as="targetPoint" />
          </mxGeometry>
        </mxCell>
        <mxCell id="D2uAuJA1LaHFy1BpvuMR-110" value="" style="endArrow=none;html=1;rounded=0;entryX=0;entryY=0.5;entryDx=0;entryDy=0;fontSize=20;fontStyle=1;strokeWidth=2;exitX=1;exitY=0.3333333333333333;exitDx=0;exitDy=0;exitPerimeter=0;" parent="1" source="D2uAuJA1LaHFy1BpvuMR-8" target="D2uAuJA1LaHFy1BpvuMR-107" edge="1">
          <mxGeometry width="50" height="50" relative="1" as="geometry">
            <mxPoint x="-9480" y="720" as="sourcePoint" />
            <mxPoint x="-9266.29" y="950" as="targetPoint" />
          </mxGeometry>
        </mxCell>
        <mxCell id="D2uAuJA1LaHFy1BpvuMR-123" value="Check Staff Loan eligibility." style="ellipse;whiteSpace=wrap;html=1;fontSize=20;fontStyle=1;strokeWidth=2;" parent="1" vertex="1">
          <mxGeometry x="-8010.009999999999" y="2288" width="357" height="75" as="geometry" />
        </mxCell>
        <mxCell id="D2uAuJA1LaHFy1BpvuMR-124" value="Check Home Loan eligibility." style="ellipse;whiteSpace=wrap;html=1;fontSize=20;fontStyle=1;strokeWidth=2;" parent="1" vertex="1">
          <mxGeometry x="-8006.21" y="2385.5" width="357" height="75" as="geometry" />
        </mxCell>
        <mxCell id="D2uAuJA1LaHFy1BpvuMR-125" value="Check vehicle Loan eligibility." style="ellipse;whiteSpace=wrap;html=1;fontSize=20;fontStyle=1;strokeWidth=2;" parent="1" vertex="1">
          <mxGeometry x="-8004.46" y="2473" width="357" height="75" as="geometry" />
        </mxCell>
        <mxCell id="D2uAuJA1LaHFy1BpvuMR-126" value="Check Educational Loan eligibility." style="ellipse;whiteSpace=wrap;html=1;fontSize=20;fontStyle=1;strokeWidth=2;" parent="1" vertex="1">
          <mxGeometry x="-8004.46" y="2553" width="357" height="75" as="geometry" />
        </mxCell>
        <mxCell id="D2uAuJA1LaHFy1BpvuMR-127" value="Check Emergency Loan eligibility." style="ellipse;whiteSpace=wrap;html=1;fontSize=20;fontStyle=1;strokeWidth=2;" parent="1" vertex="1">
          <mxGeometry x="-8010.009999999999" y="2645.5" width="357" height="75" as="geometry" />
        </mxCell>
        <mxCell id="D2uAuJA1LaHFy1BpvuMR-128" value="Check Products Loan eligibility." style="ellipse;whiteSpace=wrap;html=1;fontSize=20;fontStyle=1;strokeWidth=2;" parent="1" vertex="1">
          <mxGeometry x="-8014.62" y="2748" width="357" height="75" as="geometry" />
        </mxCell>
        <mxCell id="D2uAuJA1LaHFy1BpvuMR-129" value="" style="endArrow=none;dashed=1;html=1;strokeWidth=2;rounded=0;entryX=0;entryY=0.5;entryDx=0;entryDy=0;exitX=0.971;exitY=0.311;exitDx=0;exitDy=0;exitPerimeter=0;startArrow=open;startFill=0;startSize=12;fontSize=20;fontStyle=1" parent="1" source="D2uAuJA1LaHFy1BpvuMR-25" target="D2uAuJA1LaHFy1BpvuMR-123" edge="1">
          <mxGeometry width="50" height="50" relative="1" as="geometry">
            <mxPoint x="-8309.66" y="2200" as="sourcePoint" />
            <mxPoint x="-8259.66" y="2150" as="targetPoint" />
          </mxGeometry>
        </mxCell>
        <mxCell id="D2uAuJA1LaHFy1BpvuMR-130" value="" style="endArrow=none;dashed=1;html=1;strokeWidth=2;rounded=0;entryX=0;entryY=0.5;entryDx=0;entryDy=0;startArrow=open;startFill=0;startSize=12;fontSize=20;fontStyle=1" parent="1" target="D2uAuJA1LaHFy1BpvuMR-126" edge="1">
          <mxGeometry width="50" height="50" relative="1" as="geometry">
            <mxPoint x="-8300" y="2570" as="sourcePoint" />
            <mxPoint x="-8068.66" y="1888" as="targetPoint" />
          </mxGeometry>
        </mxCell>
        <mxCell id="D2uAuJA1LaHFy1BpvuMR-131" value="" style="endArrow=none;dashed=1;html=1;strokeWidth=2;rounded=0;entryX=0;entryY=0.5;entryDx=0;entryDy=0;exitX=0.992;exitY=0.415;exitDx=0;exitDy=0;exitPerimeter=0;startArrow=open;startFill=0;startSize=12;fontSize=20;fontStyle=1" parent="1" source="D2uAuJA1LaHFy1BpvuMR-25" target="D2uAuJA1LaHFy1BpvuMR-124" edge="1">
          <mxGeometry width="50" height="50" relative="1" as="geometry">
            <mxPoint x="-8309.66" y="2210" as="sourcePoint" />
            <mxPoint x="-8076.16" y="1898" as="targetPoint" />
          </mxGeometry>
        </mxCell>
        <mxCell id="D2uAuJA1LaHFy1BpvuMR-132" value="" style="endArrow=none;dashed=1;html=1;strokeWidth=2;rounded=0;entryX=0;entryY=0.5;entryDx=0;entryDy=0;exitX=1;exitY=0.5;exitDx=0;exitDy=0;startArrow=open;startFill=0;startSize=12;fontSize=20;fontStyle=1" parent="1" source="D2uAuJA1LaHFy1BpvuMR-25" target="D2uAuJA1LaHFy1BpvuMR-125" edge="1">
          <mxGeometry width="50" height="50" relative="1" as="geometry">
            <mxPoint x="-8279.66" y="2230" as="sourcePoint" />
            <mxPoint x="-8048.660000000001" y="1908" as="targetPoint" />
          </mxGeometry>
        </mxCell>
        <mxCell id="D2uAuJA1LaHFy1BpvuMR-133" value="" style="endArrow=none;dashed=1;html=1;strokeWidth=2;rounded=0;entryX=0;entryY=0.5;entryDx=0;entryDy=0;exitX=0.984;exitY=0.623;exitDx=0;exitDy=0;exitPerimeter=0;startArrow=open;startFill=0;startSize=12;fontSize=20;fontStyle=1" parent="1" source="D2uAuJA1LaHFy1BpvuMR-25" target="D2uAuJA1LaHFy1BpvuMR-127" edge="1">
          <mxGeometry width="50" height="50" relative="1" as="geometry">
            <mxPoint x="-8309.66" y="2210" as="sourcePoint" />
            <mxPoint x="-8069.66" y="2370" as="targetPoint" />
          </mxGeometry>
        </mxCell>
        <mxCell id="D2uAuJA1LaHFy1BpvuMR-134" value="" style="endArrow=none;dashed=1;html=1;strokeWidth=2;rounded=0;exitX=0.958;exitY=0.733;exitDx=0;exitDy=0;exitPerimeter=0;startArrow=open;startFill=0;startSize=12;entryX=0;entryY=0.5;entryDx=0;entryDy=0;fontSize=20;fontStyle=1" parent="1" source="D2uAuJA1LaHFy1BpvuMR-25" target="D2uAuJA1LaHFy1BpvuMR-128" edge="1">
          <mxGeometry width="50" height="50" relative="1" as="geometry">
            <mxPoint x="-8319.66" y="2220" as="sourcePoint" />
            <mxPoint x="-8049.660000000001" y="2520" as="targetPoint" />
          </mxGeometry>
        </mxCell>
        <mxCell id="D2uAuJA1LaHFy1BpvuMR-141" value="HR&lt;div&gt;Head&lt;/div&gt;" style="shape=umlActor;verticalLabelPosition=bottom;verticalAlign=top;html=1;fontSize=20;fontStyle=1;strokeWidth=2;" parent="1" vertex="1">
          <mxGeometry x="-9440" y="4060" width="50" height="90" as="geometry" />
        </mxCell>
        <mxCell id="D2uAuJA1LaHFy1BpvuMR-142" value="&lt;font style=&quot;font-size: 20px;&quot;&gt;Generate KPI report&lt;/font&gt;" style="ellipse;whiteSpace=wrap;html=1;fontSize=20;fontStyle=1;strokeWidth=2;" parent="1" vertex="1">
          <mxGeometry x="-8688.92" y="8541" width="374" height="80" as="geometry" />
        </mxCell>
        <mxCell id="D2uAuJA1LaHFy1BpvuMR-143" value="&lt;font style=&quot;font-size: 20px;&quot;&gt;Generate Monthly KPI report&lt;/font&gt;" style="ellipse;whiteSpace=wrap;html=1;fontSize=20;fontStyle=1;strokeWidth=2;" parent="1" vertex="1">
          <mxGeometry x="-8024.070000000001" y="8526" width="326.45" height="85" as="geometry" />
        </mxCell>
        <mxCell id="D2uAuJA1LaHFy1BpvuMR-144" value="&lt;font style=&quot;font-size: 20px;&quot;&gt;Generate Annual KPI report&lt;/font&gt;" style="ellipse;whiteSpace=wrap;html=1;fontSize=20;fontStyle=1;strokeWidth=2;" parent="1" vertex="1">
          <mxGeometry x="-8029.04" y="8631" width="341.42" height="80" as="geometry" />
        </mxCell>
        <mxCell id="D2uAuJA1LaHFy1BpvuMR-146" value="" style="endArrow=open;dashed=1;html=1;rounded=0;exitX=0;exitY=0.5;exitDx=0;exitDy=0;entryX=1;entryY=0.5;entryDx=0;entryDy=0;endFill=0;endSize=12;fontSize=20;fontStyle=1;strokeWidth=2;" parent="1" source="D2uAuJA1LaHFy1BpvuMR-89" target="D2uAuJA1LaHFy1BpvuMR-17" edge="1">
          <mxGeometry width="50" height="50" relative="1" as="geometry">
            <mxPoint x="-8388.070000000002" y="6331" as="sourcePoint" />
            <mxPoint x="-8338.070000000002" y="6281" as="targetPoint" />
          </mxGeometry>
        </mxCell>
        <mxCell id="D2uAuJA1LaHFy1BpvuMR-147" value="" style="endArrow=open;dashed=1;html=1;rounded=0;exitX=0;exitY=0.5;exitDx=0;exitDy=0;entryX=0.981;entryY=0.644;entryDx=0;entryDy=0;endFill=0;endSize=12;entryPerimeter=0;fontSize=20;fontStyle=1;strokeWidth=2;" parent="1" source="D2uAuJA1LaHFy1BpvuMR-88" target="D2uAuJA1LaHFy1BpvuMR-17" edge="1">
          <mxGeometry width="50" height="50" relative="1" as="geometry">
            <mxPoint x="-9013.070000000002" y="5844" as="sourcePoint" />
            <mxPoint x="-8729.070000000002" y="5869" as="targetPoint" />
            <Array as="points">
              <mxPoint x="-8390" y="5880" />
            </Array>
          </mxGeometry>
        </mxCell>
        <mxCell id="D2uAuJA1LaHFy1BpvuMR-148" value="" style="endArrow=open;dashed=1;html=1;rounded=0;exitX=0;exitY=0.5;exitDx=0;exitDy=0;entryX=1;entryY=0.5;entryDx=0;entryDy=0;endFill=0;endSize=12;fontSize=20;fontStyle=1;strokeWidth=2;" parent="1" source="D2uAuJA1LaHFy1BpvuMR-65" target="D2uAuJA1LaHFy1BpvuMR-30" edge="1">
          <mxGeometry width="50" height="50" relative="1" as="geometry">
            <mxPoint x="-9001.710000000001" y="6009" as="sourcePoint" />
            <mxPoint x="-8711.710000000001" y="5911" as="targetPoint" />
          </mxGeometry>
        </mxCell>
        <mxCell id="D2uAuJA1LaHFy1BpvuMR-149" value="" style="endArrow=open;dashed=1;html=1;rounded=0;exitX=0;exitY=0.5;exitDx=0;exitDy=0;endFill=0;endSize=12;fontSize=20;fontStyle=1;strokeWidth=2;" parent="1" source="D2uAuJA1LaHFy1BpvuMR-66" edge="1">
          <mxGeometry width="50" height="50" relative="1" as="geometry">
            <mxPoint x="-9006.710000000001" y="6099" as="sourcePoint" />
            <mxPoint x="-8382.900000000001" y="6081" as="targetPoint" />
          </mxGeometry>
        </mxCell>
        <mxCell id="D2uAuJA1LaHFy1BpvuMR-150" value="" style="endArrow=open;dashed=1;html=1;rounded=0;exitX=0;exitY=0.5;exitDx=0;exitDy=0;entryX=1;entryY=0.5;entryDx=0;entryDy=0;endFill=0;endSize=12;fontSize=20;fontStyle=1;strokeWidth=2;" parent="1" source="D2uAuJA1LaHFy1BpvuMR-67" target="D2uAuJA1LaHFy1BpvuMR-29" edge="1">
          <mxGeometry width="50" height="50" relative="1" as="geometry">
            <mxPoint x="-8996.710000000001" y="6109" as="sourcePoint" />
            <mxPoint x="-8715.710000000001" y="6081" as="targetPoint" />
          </mxGeometry>
        </mxCell>
        <mxCell id="D2uAuJA1LaHFy1BpvuMR-151" value="" style="endArrow=open;dashed=1;html=1;rounded=0;exitX=0;exitY=0.5;exitDx=0;exitDy=0;entryX=0.89;entryY=0.8;entryDx=0;entryDy=0;entryPerimeter=0;endFill=0;endSize=12;fontSize=20;fontStyle=1;strokeWidth=2;" parent="1" source="D2uAuJA1LaHFy1BpvuMR-68" target="D2uAuJA1LaHFy1BpvuMR-29" edge="1">
          <mxGeometry width="50" height="50" relative="1" as="geometry">
            <mxPoint x="-8986.710000000001" y="6119" as="sourcePoint" />
            <mxPoint x="-8720.710000000001" y="6251" as="targetPoint" />
          </mxGeometry>
        </mxCell>
        <mxCell id="D2uAuJA1LaHFy1BpvuMR-152" value="" style="endArrow=open;dashed=1;html=1;rounded=0;exitX=0;exitY=0.5;exitDx=0;exitDy=0;entryX=1;entryY=0.5;entryDx=0;entryDy=0;endFill=0;endSize=12;fontSize=20;fontStyle=1;strokeWidth=2;" parent="1" source="D2uAuJA1LaHFy1BpvuMR-69" target="D2uAuJA1LaHFy1BpvuMR-64" edge="1">
          <mxGeometry width="50" height="50" relative="1" as="geometry">
            <mxPoint x="-9009.710000000001" y="6369" as="sourcePoint" />
            <mxPoint x="-8718.710000000001" y="6267" as="targetPoint" />
          </mxGeometry>
        </mxCell>
        <mxCell id="D2uAuJA1LaHFy1BpvuMR-153" value="" style="endArrow=open;dashed=1;html=1;rounded=0;exitX=0;exitY=0.5;exitDx=0;exitDy=0;entryX=0.935;entryY=0.743;entryDx=0;entryDy=0;endFill=0;endSize=12;entryPerimeter=0;fontSize=20;fontStyle=1;strokeWidth=2;" parent="1" source="D2uAuJA1LaHFy1BpvuMR-70" target="D2uAuJA1LaHFy1BpvuMR-64" edge="1">
          <mxGeometry width="50" height="50" relative="1" as="geometry">
            <mxPoint x="-9010.710000000001" y="6489" as="sourcePoint" />
            <mxPoint x="-8710.710000000001" y="6506" as="targetPoint" />
          </mxGeometry>
        </mxCell>
        <mxCell id="D2uAuJA1LaHFy1BpvuMR-154" value="" style="endArrow=open;dashed=1;html=1;rounded=0;exitX=0;exitY=0.5;exitDx=0;exitDy=0;entryX=0.973;entryY=0.643;entryDx=0;entryDy=0;endFill=0;endSize=12;entryPerimeter=0;fontSize=20;fontStyle=1;strokeWidth=2;" parent="1" source="D2uAuJA1LaHFy1BpvuMR-71" target="D2uAuJA1LaHFy1BpvuMR-28" edge="1">
          <mxGeometry width="50" height="50" relative="1" as="geometry">
            <mxPoint x="-8990.710000000001" y="6509" as="sourcePoint" />
            <mxPoint x="-8690.710000000001" y="6526" as="targetPoint" />
          </mxGeometry>
        </mxCell>
        <mxCell id="D2uAuJA1LaHFy1BpvuMR-155" value="" style="endArrow=open;dashed=1;html=1;rounded=0;exitX=0;exitY=0.5;exitDx=0;exitDy=0;entryX=1;entryY=0.5;entryDx=0;entryDy=0;endFill=0;endSize=12;fontSize=20;fontStyle=1;strokeWidth=2;" parent="1" source="D2uAuJA1LaHFy1BpvuMR-72" target="D2uAuJA1LaHFy1BpvuMR-34" edge="1">
          <mxGeometry width="50" height="50" relative="1" as="geometry">
            <mxPoint x="-8998.460000000001" y="6729" as="sourcePoint" />
            <mxPoint x="-8705.460000000001" y="6611" as="targetPoint" />
          </mxGeometry>
        </mxCell>
        <mxCell id="D2uAuJA1LaHFy1BpvuMR-156" value="" style="endArrow=open;dashed=1;html=1;rounded=0;exitX=0;exitY=0.5;exitDx=0;exitDy=0;endFill=0;endSize=12;entryX=0.903;entryY=0.8;entryDx=0;entryDy=0;entryPerimeter=0;fontSize=20;fontStyle=1;strokeWidth=2;" parent="1" source="D2uAuJA1LaHFy1BpvuMR-73" target="D2uAuJA1LaHFy1BpvuMR-34" edge="1">
          <mxGeometry width="50" height="50" relative="1" as="geometry">
            <mxPoint x="-8988.460000000001" y="6739" as="sourcePoint" />
            <mxPoint x="-8708.460000000001" y="6891" as="targetPoint" />
          </mxGeometry>
        </mxCell>
        <mxCell id="D2uAuJA1LaHFy1BpvuMR-157" value="" style="endArrow=open;dashed=1;html=1;rounded=0;exitX=0;exitY=0.5;exitDx=0;exitDy=0;entryX=0.99;entryY=0.389;entryDx=0;entryDy=0;entryPerimeter=0;endFill=0;endSize=12;fontSize=20;fontStyle=1;strokeWidth=2;" parent="1" source="D2uAuJA1LaHFy1BpvuMR-74" target="D2uAuJA1LaHFy1BpvuMR-35" edge="1">
          <mxGeometry width="50" height="50" relative="1" as="geometry">
            <mxPoint x="-8990.460000000001" y="6981" as="sourcePoint" />
            <mxPoint x="-8698.460000000001" y="6901" as="targetPoint" />
          </mxGeometry>
        </mxCell>
        <mxCell id="D2uAuJA1LaHFy1BpvuMR-158" value="" style="endArrow=open;dashed=1;html=1;rounded=0;exitX=0;exitY=0.5;exitDx=0;exitDy=0;entryX=0.971;entryY=0.681;entryDx=0;entryDy=0;endFill=0;endSize=12;entryPerimeter=0;fontSize=20;fontStyle=1;strokeWidth=2;" parent="1" source="D2uAuJA1LaHFy1BpvuMR-75" target="D2uAuJA1LaHFy1BpvuMR-35" edge="1">
          <mxGeometry width="50" height="50" relative="1" as="geometry">
            <mxPoint x="-8972.460000000001" y="7109" as="sourcePoint" />
            <mxPoint x="-8696.460000000001" y="7116" as="targetPoint" />
          </mxGeometry>
        </mxCell>
        <mxCell id="D2uAuJA1LaHFy1BpvuMR-159" value="" style="endArrow=open;dashed=1;html=1;rounded=0;entryX=1;entryY=0.5;entryDx=0;entryDy=0;endFill=0;endSize=12;exitX=0.005;exitY=0.451;exitDx=0;exitDy=0;exitPerimeter=0;fontSize=20;fontStyle=1;strokeWidth=2;" parent="1" source="D2uAuJA1LaHFy1BpvuMR-76" target="D2uAuJA1LaHFy1BpvuMR-41" edge="1">
          <mxGeometry width="50" height="50" relative="1" as="geometry">
            <mxPoint x="-8142.610000000002" y="7313" as="sourcePoint" />
            <mxPoint x="-8704.42" y="7116" as="targetPoint" />
          </mxGeometry>
        </mxCell>
        <mxCell id="D2uAuJA1LaHFy1BpvuMR-160" value="" style="endArrow=open;dashed=1;html=1;rounded=0;exitX=0;exitY=0.5;exitDx=0;exitDy=0;entryX=0.962;entryY=0.694;entryDx=0;entryDy=0;endFill=0;endSize=12;entryPerimeter=0;fontSize=20;fontStyle=1;strokeWidth=2;" parent="1" source="D2uAuJA1LaHFy1BpvuMR-77" target="D2uAuJA1LaHFy1BpvuMR-41" edge="1">
          <mxGeometry width="50" height="50" relative="1" as="geometry">
            <mxPoint x="-8968.42" y="7319" as="sourcePoint" />
            <mxPoint x="-8704.42" y="7316" as="targetPoint" />
          </mxGeometry>
        </mxCell>
        <mxCell id="D2uAuJA1LaHFy1BpvuMR-161" value="" style="endArrow=open;dashed=1;html=1;rounded=0;exitX=0;exitY=0.5;exitDx=0;exitDy=0;entryX=0.971;entryY=0.309;entryDx=0;entryDy=0;endFill=0;endSize=12;entryPerimeter=0;fontSize=20;fontStyle=1;strokeWidth=2;" parent="1" source="D2uAuJA1LaHFy1BpvuMR-78" target="D2uAuJA1LaHFy1BpvuMR-42" edge="1">
          <mxGeometry width="50" height="50" relative="1" as="geometry">
            <mxPoint x="-8968.42" y="7399" as="sourcePoint" />
            <mxPoint x="-8694.42" y="7326" as="targetPoint" />
          </mxGeometry>
        </mxCell>
        <mxCell id="D2uAuJA1LaHFy1BpvuMR-162" value="" style="endArrow=open;dashed=1;html=1;rounded=0;exitX=0;exitY=0.5;exitDx=0;exitDy=0;entryX=0.97;entryY=0.671;entryDx=0;entryDy=0;endFill=0;endSize=12;entryPerimeter=0;fontSize=20;fontStyle=1;strokeWidth=2;" parent="1" source="D2uAuJA1LaHFy1BpvuMR-79" target="D2uAuJA1LaHFy1BpvuMR-42" edge="1">
          <mxGeometry width="50" height="50" relative="1" as="geometry">
            <mxPoint x="-8965.42" y="7549" as="sourcePoint" />
            <mxPoint x="-8691.42" y="7586" as="targetPoint" />
          </mxGeometry>
        </mxCell>
        <mxCell id="D2uAuJA1LaHFy1BpvuMR-163" value="" style="endArrow=open;dashed=1;html=1;rounded=0;exitX=0.014;exitY=0.385;exitDx=0;exitDy=0;endFill=0;endSize=12;exitPerimeter=0;fontSize=20;fontStyle=1;strokeWidth=2;" parent="1" source="D2uAuJA1LaHFy1BpvuMR-80" target="D2uAuJA1LaHFy1BpvuMR-43" edge="1">
          <mxGeometry width="50" height="50" relative="1" as="geometry">
            <mxPoint x="-8965.42" y="7629" as="sourcePoint" />
            <mxPoint x="-8322.610000000002" y="7751" as="targetPoint" />
          </mxGeometry>
        </mxCell>
        <mxCell id="D2uAuJA1LaHFy1BpvuMR-164" value="" style="endArrow=open;dashed=1;html=1;rounded=0;exitX=0;exitY=0.5;exitDx=0;exitDy=0;entryX=0.976;entryY=0.63;entryDx=0;entryDy=0;entryPerimeter=0;endFill=0;endSize=12;fontSize=20;fontStyle=1;strokeWidth=2;" parent="1" source="D2uAuJA1LaHFy1BpvuMR-81" target="D2uAuJA1LaHFy1BpvuMR-43" edge="1">
          <mxGeometry width="50" height="50" relative="1" as="geometry">
            <mxPoint x="-8955.42" y="7639" as="sourcePoint" />
            <mxPoint x="-8671.42" y="7606" as="targetPoint" />
          </mxGeometry>
        </mxCell>
        <mxCell id="D2uAuJA1LaHFy1BpvuMR-165" value="" style="endArrow=open;dashed=1;html=1;rounded=0;endFill=0;endSize=12;exitX=0;exitY=0.5;exitDx=0;exitDy=0;fontSize=20;fontStyle=1;strokeWidth=2;" parent="1" source="D2uAuJA1LaHFy1BpvuMR-82" edge="1">
          <mxGeometry width="50" height="50" relative="1" as="geometry">
            <mxPoint x="-8132.610000000002" y="7951" as="sourcePoint" />
            <mxPoint x="-8322.610000000002" y="7951" as="targetPoint" />
          </mxGeometry>
        </mxCell>
        <mxCell id="D2uAuJA1LaHFy1BpvuMR-166" value="" style="endArrow=open;dashed=1;html=1;rounded=0;exitX=0;exitY=0.5;exitDx=0;exitDy=0;entryX=0.94;entryY=0.724;entryDx=0;entryDy=0;endFill=0;endSize=12;entryPerimeter=0;fontSize=20;fontStyle=1;strokeWidth=2;" parent="1" source="D2uAuJA1LaHFy1BpvuMR-83" target="D2uAuJA1LaHFy1BpvuMR-44" edge="1">
          <mxGeometry width="50" height="50" relative="1" as="geometry">
            <mxPoint x="-8963.42" y="7959" as="sourcePoint" />
            <mxPoint x="-8683.42" y="7966" as="targetPoint" />
          </mxGeometry>
        </mxCell>
        <mxCell id="D2uAuJA1LaHFy1BpvuMR-167" value="" style="endArrow=open;dashed=1;html=1;rounded=0;exitX=0;exitY=0.5;exitDx=0;exitDy=0;endFill=0;endSize=12;entryX=0.979;entryY=0.347;entryDx=0;entryDy=0;entryPerimeter=0;fontSize=20;fontStyle=1;strokeWidth=2;" parent="1" source="D2uAuJA1LaHFy1BpvuMR-84" target="D2uAuJA1LaHFy1BpvuMR-45" edge="1">
          <mxGeometry width="50" height="50" relative="1" as="geometry">
            <mxPoint x="-8963.42" y="8039" as="sourcePoint" />
            <mxPoint x="-8972.610000000002" y="8271" as="targetPoint" />
            <Array as="points" />
          </mxGeometry>
        </mxCell>
        <mxCell id="D2uAuJA1LaHFy1BpvuMR-168" value="" style="endArrow=open;dashed=1;html=1;rounded=0;exitX=0;exitY=0.5;exitDx=0;exitDy=0;endFill=0;endSize=12;entryX=0.969;entryY=0.669;entryDx=0;entryDy=0;entryPerimeter=0;fontSize=20;fontStyle=1;strokeWidth=2;" parent="1" source="D2uAuJA1LaHFy1BpvuMR-85" target="D2uAuJA1LaHFy1BpvuMR-45" edge="1">
          <mxGeometry width="50" height="50" relative="1" as="geometry">
            <mxPoint x="-8959.42" y="8179" as="sourcePoint" />
            <mxPoint x="-8332.610000000002" y="8201" as="targetPoint" />
            <Array as="points" />
          </mxGeometry>
        </mxCell>
        <mxCell id="D2uAuJA1LaHFy1BpvuMR-169" value="" style="endArrow=open;dashed=1;html=1;rounded=0;endFill=0;endSize=12;entryX=0.992;entryY=0.447;entryDx=0;entryDy=0;entryPerimeter=0;exitX=0.007;exitY=0.407;exitDx=0;exitDy=0;exitPerimeter=0;fontSize=20;fontStyle=1;strokeWidth=2;" parent="1" source="D2uAuJA1LaHFy1BpvuMR-86" target="D2uAuJA1LaHFy1BpvuMR-46" edge="1">
          <mxGeometry width="50" height="50" relative="1" as="geometry">
            <mxPoint x="-8112.610000000002" y="8369" as="sourcePoint" />
            <mxPoint x="-8322.610000000002" y="8369" as="targetPoint" />
            <Array as="points" />
          </mxGeometry>
        </mxCell>
        <mxCell id="D2uAuJA1LaHFy1BpvuMR-170" value="" style="endArrow=open;dashed=1;html=1;rounded=0;exitX=0;exitY=0.5;exitDx=0;exitDy=0;entryX=0.935;entryY=0.756;entryDx=0;entryDy=0;entryPerimeter=0;endFill=0;endSize=12;fontSize=20;fontStyle=1;strokeWidth=2;" parent="1" source="D2uAuJA1LaHFy1BpvuMR-87" target="D2uAuJA1LaHFy1BpvuMR-46" edge="1">
          <mxGeometry width="50" height="50" relative="1" as="geometry">
            <mxPoint x="-8949.42" y="8269" as="sourcePoint" />
            <mxPoint x="-8659.42" y="8219" as="targetPoint" />
            <Array as="points" />
          </mxGeometry>
        </mxCell>
        <mxCell id="D2uAuJA1LaHFy1BpvuMR-171" value="" style="endArrow=open;dashed=1;html=1;rounded=0;entryX=0.993;entryY=0.4;entryDx=0;entryDy=0;entryPerimeter=0;endFill=0;endSize=12;exitX=0;exitY=0.465;exitDx=0;exitDy=0;exitPerimeter=0;fontSize=20;fontStyle=1;strokeWidth=2;" parent="1" source="D2uAuJA1LaHFy1BpvuMR-143" target="D2uAuJA1LaHFy1BpvuMR-142" edge="1">
          <mxGeometry width="50" height="50" relative="1" as="geometry">
            <mxPoint x="-8122.610000000002" y="8561" as="sourcePoint" />
            <mxPoint x="-8652.42" y="8399" as="targetPoint" />
            <Array as="points" />
          </mxGeometry>
        </mxCell>
        <mxCell id="D2uAuJA1LaHFy1BpvuMR-172" value="" style="endArrow=open;dashed=1;html=1;rounded=0;exitX=0;exitY=0.5;exitDx=0;exitDy=0;entryX=0.963;entryY=0.7;entryDx=0;entryDy=0;endFill=0;endSize=12;entryPerimeter=0;fontSize=20;fontStyle=1;strokeWidth=2;" parent="1" source="D2uAuJA1LaHFy1BpvuMR-144" target="D2uAuJA1LaHFy1BpvuMR-142" edge="1">
          <mxGeometry width="50" height="50" relative="1" as="geometry">
            <mxPoint x="-8939.42" y="8469" as="sourcePoint" />
            <mxPoint x="-8642.42" y="8409" as="targetPoint" />
            <Array as="points" />
          </mxGeometry>
        </mxCell>
        <mxCell id="D2uAuJA1LaHFy1BpvuMR-173" value="" style="endArrow=none;dashed=1;html=1;rounded=0;exitX=0;exitY=0.5;exitDx=0;exitDy=0;startArrow=open;startFill=0;startSize=12;entryX=1;entryY=0.5;entryDx=0;entryDy=0;fontSize=20;fontStyle=1;strokeWidth=2;" parent="1" source="D2uAuJA1LaHFy1BpvuMR-90" target="D2uAuJA1LaHFy1BpvuMR-14" edge="1">
          <mxGeometry width="50" height="50" relative="1" as="geometry">
            <mxPoint x="-8778.070000000002" y="5421" as="sourcePoint" />
            <mxPoint x="-8359.87" y="5379" as="targetPoint" />
          </mxGeometry>
        </mxCell>
        <mxCell id="D2uAuJA1LaHFy1BpvuMR-174" value="" style="endArrow=open;dashed=1;html=1;rounded=0;exitX=0.016;exitY=0.42;exitDx=0;exitDy=0;exitPerimeter=0;endFill=0;endSize=12;entryX=0.956;entryY=0.707;entryDx=0;entryDy=0;entryPerimeter=0;fontSize=20;fontStyle=1;strokeWidth=2;" parent="1" source="D2uAuJA1LaHFy1BpvuMR-99" target="D2uAuJA1LaHFy1BpvuMR-26" edge="1">
          <mxGeometry width="50" height="50" relative="1" as="geometry">
            <mxPoint x="-8990.109999999999" y="5266" as="sourcePoint" />
            <mxPoint x="-8723.070000000002" y="5111" as="targetPoint" />
          </mxGeometry>
        </mxCell>
        <mxCell id="D2uAuJA1LaHFy1BpvuMR-175" value="" style="endArrow=open;dashed=1;html=1;rounded=0;exitX=0;exitY=0.5;exitDx=0;exitDy=0;endFill=0;endSize=12;entryX=0.999;entryY=0.546;entryDx=0;entryDy=0;entryPerimeter=0;fontSize=20;fontStyle=1;strokeWidth=2;" parent="1" source="D2uAuJA1LaHFy1BpvuMR-98" target="D2uAuJA1LaHFy1BpvuMR-26" edge="1">
          <mxGeometry width="50" height="50" relative="1" as="geometry">
            <mxPoint x="-8266.5" y="5096" as="sourcePoint" />
            <mxPoint x="-8721.99" y="5101" as="targetPoint" />
          </mxGeometry>
        </mxCell>
        <mxCell id="D2uAuJA1LaHFy1BpvuMR-176" value="" style="endArrow=open;dashed=1;html=1;rounded=0;exitX=0;exitY=0.5;exitDx=0;exitDy=0;entryX=0.989;entryY=0.396;entryDx=0;entryDy=0;entryPerimeter=0;endFill=0;endSize=12;fontSize=20;fontStyle=1;strokeWidth=2;" parent="1" source="D2uAuJA1LaHFy1BpvuMR-97" target="D2uAuJA1LaHFy1BpvuMR-26" edge="1">
          <mxGeometry width="50" height="50" relative="1" as="geometry">
            <mxPoint x="-8978.53" y="5244" as="sourcePoint" />
            <mxPoint x="-8715.53" y="5091" as="targetPoint" />
          </mxGeometry>
        </mxCell>
        <mxCell id="D2uAuJA1LaHFy1BpvuMR-177" value="" style="endArrow=open;dashed=1;html=1;rounded=0;exitX=0;exitY=0.5;exitDx=0;exitDy=0;entryX=0.959;entryY=0.293;entryDx=0;entryDy=0;entryPerimeter=0;endFill=0;endSize=12;fontSize=20;fontStyle=1;strokeWidth=2;" parent="1" source="D2uAuJA1LaHFy1BpvuMR-96" target="D2uAuJA1LaHFy1BpvuMR-26" edge="1">
          <mxGeometry width="50" height="50" relative="1" as="geometry">
            <mxPoint x="-8956.070000000002" y="5294" as="sourcePoint" />
            <mxPoint x="-8728.070000000002" y="5111" as="targetPoint" />
          </mxGeometry>
        </mxCell>
        <mxCell id="D2uAuJA1LaHFy1BpvuMR-178" value="" style="endArrow=open;dashed=1;html=1;rounded=0;exitX=0;exitY=0.5;exitDx=0;exitDy=0;entryX=0.906;entryY=0.214;entryDx=0;entryDy=0;entryPerimeter=0;endFill=0;endSize=12;fontSize=20;fontStyle=1;strokeWidth=2;" parent="1" source="D2uAuJA1LaHFy1BpvuMR-95" target="D2uAuJA1LaHFy1BpvuMR-26" edge="1">
          <mxGeometry width="50" height="50" relative="1" as="geometry">
            <mxPoint x="-8946.070000000002" y="5304" as="sourcePoint" />
            <mxPoint x="-8683.070000000002" y="5151" as="targetPoint" />
          </mxGeometry>
        </mxCell>
        <mxCell id="D2uAuJA1LaHFy1BpvuMR-179" value="" style="endArrow=open;dashed=1;html=1;rounded=0;exitX=0;exitY=0.5;exitDx=0;exitDy=0;entryX=1;entryY=0;entryDx=0;entryDy=0;endFill=0;endSize=12;fontSize=20;fontStyle=1;strokeWidth=2;" parent="1" source="D2uAuJA1LaHFy1BpvuMR-94" target="D2uAuJA1LaHFy1BpvuMR-26" edge="1">
          <mxGeometry width="50" height="50" relative="1" as="geometry">
            <mxPoint x="-8936.070000000002" y="5314" as="sourcePoint" />
            <mxPoint x="-8673.070000000002" y="5161" as="targetPoint" />
          </mxGeometry>
        </mxCell>
        <mxCell id="D2uAuJA1LaHFy1BpvuMR-195" value="&lt;font style=&quot;font-size: 20px;&quot;&gt;&amp;lt;&amp;lt;extend&amp;gt;&amp;gt;&lt;/font&gt;" style="text;html=1;align=center;verticalAlign=middle;resizable=0;points=[];autosize=1;strokeColor=none;fillColor=none;fontSize=20;fontStyle=1;strokeWidth=2;" parent="1" vertex="1">
          <mxGeometry x="-8320.320000000002" y="4781" width="130" height="40" as="geometry" />
        </mxCell>
        <mxCell id="D2uAuJA1LaHFy1BpvuMR-196" value="&lt;font style=&quot;font-size: 20px;&quot;&gt;&amp;lt;&amp;lt;extend&amp;gt;&amp;gt;&lt;/font&gt;" style="text;html=1;align=center;verticalAlign=middle;resizable=0;points=[];autosize=1;strokeColor=none;fillColor=none;fontSize=20;fontStyle=1;strokeWidth=2;" parent="1" vertex="1">
          <mxGeometry x="-8276.26" y="4931" width="130" height="40" as="geometry" />
        </mxCell>
        <mxCell id="D2uAuJA1LaHFy1BpvuMR-197" value="&lt;font style=&quot;font-size: 20px;&quot;&gt;&amp;lt;&amp;lt;extend&amp;gt;&amp;gt;&lt;/font&gt;" style="text;html=1;align=center;verticalAlign=middle;resizable=0;points=[];autosize=1;strokeColor=none;fillColor=none;fontSize=20;fontStyle=1;strokeWidth=2;" parent="1" vertex="1">
          <mxGeometry x="-8266.500000000002" y="5001" width="130" height="40" as="geometry" />
        </mxCell>
        <mxCell id="D2uAuJA1LaHFy1BpvuMR-199" value="&lt;font style=&quot;font-size: 20px;&quot;&gt;&amp;lt;&amp;lt;extend&amp;gt;&amp;gt;&lt;/font&gt;" style="text;html=1;align=center;verticalAlign=middle;resizable=0;points=[];autosize=1;strokeColor=none;fillColor=none;fontSize=20;fontStyle=1;strokeWidth=2;" parent="1" vertex="1">
          <mxGeometry x="-8272.850000000002" y="5141" width="130" height="40" as="geometry" />
        </mxCell>
        <mxCell id="D2uAuJA1LaHFy1BpvuMR-200" value="&lt;font style=&quot;font-size: 20px;&quot;&gt;&amp;lt;&amp;lt;extend&amp;gt;&amp;gt;&lt;/font&gt;" style="text;html=1;align=center;verticalAlign=middle;resizable=0;points=[];autosize=1;strokeColor=none;fillColor=none;fontSize=20;fontStyle=1;strokeWidth=2;" parent="1" vertex="1">
          <mxGeometry x="-8296.370000000003" y="4871" width="130" height="40" as="geometry" />
        </mxCell>
        <mxCell id="D2uAuJA1LaHFy1BpvuMR-201" value="&lt;font style=&quot;font-size: 20px;&quot;&gt;&amp;lt;&amp;lt;extend&amp;gt;&amp;gt;&lt;/font&gt;" style="text;html=1;align=center;verticalAlign=middle;resizable=0;points=[];autosize=1;strokeColor=none;fillColor=none;fontSize=20;fontStyle=1;strokeWidth=2;" parent="1" vertex="1">
          <mxGeometry x="-8326.430000000002" y="5813.5" width="130" height="40" as="geometry" />
        </mxCell>
        <mxCell id="D2uAuJA1LaHFy1BpvuMR-202" value="&lt;font style=&quot;font-size: 20px;&quot;&gt;&amp;lt;&amp;lt;extend&amp;gt;&amp;gt;&lt;/font&gt;" style="text;html=1;align=center;verticalAlign=middle;resizable=0;points=[];autosize=1;strokeColor=none;fillColor=none;fontSize=20;fontStyle=1;strokeWidth=2;" parent="1" vertex="1">
          <mxGeometry x="-8312.960000000001" y="6841" width="130" height="40" as="geometry" />
        </mxCell>
        <mxCell id="D2uAuJA1LaHFy1BpvuMR-204" value="&lt;font style=&quot;font-size: 20px;&quot;&gt;&amp;lt;&amp;lt;extend&amp;gt;&amp;gt;&lt;/font&gt;" style="text;html=1;align=center;verticalAlign=middle;resizable=0;points=[];autosize=1;strokeColor=none;fillColor=none;fontSize=20;fontStyle=1;strokeWidth=2;" parent="1" vertex="1">
          <mxGeometry x="-8280.300000000001" y="6711" width="130" height="40" as="geometry" />
        </mxCell>
        <mxCell id="D2uAuJA1LaHFy1BpvuMR-205" value="&lt;font style=&quot;font-size: 20px;&quot;&gt;&amp;lt;&amp;lt;extend&amp;gt;&amp;gt;&lt;/font&gt;" style="text;html=1;align=center;verticalAlign=middle;resizable=0;points=[];autosize=1;strokeColor=none;fillColor=none;fontSize=20;fontStyle=1;strokeWidth=2;" parent="1" vertex="1">
          <mxGeometry x="-8276.26" y="6506" width="130" height="40" as="geometry" />
        </mxCell>
        <mxCell id="D2uAuJA1LaHFy1BpvuMR-206" value="&lt;font style=&quot;font-size: 20px;&quot;&gt;&amp;lt;&amp;lt;extend&amp;gt;&amp;gt;&lt;/font&gt;" style="text;html=1;align=center;verticalAlign=middle;resizable=0;points=[];autosize=1;strokeColor=none;fillColor=none;fontSize=20;fontStyle=1;strokeWidth=2;" parent="1" vertex="1">
          <mxGeometry x="-8234.230000000001" y="6448.5" width="130" height="40" as="geometry" />
        </mxCell>
        <mxCell id="D2uAuJA1LaHFy1BpvuMR-207" value="&lt;font style=&quot;font-size: 20px;&quot;&gt;&amp;lt;&amp;lt;extend&amp;gt;&amp;gt;&lt;/font&gt;" style="text;html=1;align=center;verticalAlign=middle;resizable=0;points=[];autosize=1;strokeColor=none;fillColor=none;fontSize=20;fontStyle=1;strokeWidth=2;" parent="1" vertex="1">
          <mxGeometry x="-8298.130000000001" y="6271" width="130" height="40" as="geometry" />
        </mxCell>
        <mxCell id="D2uAuJA1LaHFy1BpvuMR-208" value="&lt;font style=&quot;font-size: 20px;&quot;&gt;&amp;lt;&amp;lt;extend&amp;gt;&amp;gt;&lt;/font&gt;" style="text;html=1;align=center;verticalAlign=middle;resizable=0;points=[];autosize=1;strokeColor=none;fillColor=none;fontSize=20;fontStyle=1;strokeWidth=2;" parent="1" vertex="1">
          <mxGeometry x="-8312.960000000001" y="6221" width="130" height="40" as="geometry" />
        </mxCell>
        <mxCell id="D2uAuJA1LaHFy1BpvuMR-209" value="&lt;font style=&quot;font-size: 20px;&quot;&gt;&amp;lt;&amp;lt;extend&amp;gt;&amp;gt;&lt;/font&gt;" style="text;html=1;align=center;verticalAlign=middle;resizable=0;points=[];autosize=1;strokeColor=none;fillColor=none;fontSize=20;fontStyle=1;strokeWidth=2;" parent="1" vertex="1">
          <mxGeometry x="-8252.760000000002" y="6076" width="130" height="40" as="geometry" />
        </mxCell>
        <mxCell id="D2uAuJA1LaHFy1BpvuMR-210" value="&lt;font style=&quot;font-size: 20px;&quot;&gt;&amp;lt;&amp;lt;extend&amp;gt;&amp;gt;&lt;/font&gt;" style="text;html=1;align=center;verticalAlign=middle;resizable=0;points=[];autosize=1;strokeColor=none;fillColor=none;fontSize=20;fontStyle=1;strokeWidth=2;" parent="1" vertex="1">
          <mxGeometry x="-8301.880000000001" y="6018.5" width="130" height="40" as="geometry" />
        </mxCell>
        <mxCell id="D2uAuJA1LaHFy1BpvuMR-211" value="&lt;font style=&quot;font-size: 20px;&quot;&gt;&amp;lt;&amp;lt;extend&amp;gt;&amp;gt;&lt;/font&gt;" style="text;html=1;align=center;verticalAlign=middle;resizable=0;points=[];autosize=1;strokeColor=none;fillColor=none;fontSize=20;fontStyle=1;strokeWidth=2;" parent="1" vertex="1">
          <mxGeometry x="-8309.900000000003" y="7518.5" width="130" height="40" as="geometry" />
        </mxCell>
        <mxCell id="D2uAuJA1LaHFy1BpvuMR-212" value="&lt;font style=&quot;font-size: 20px;&quot;&gt;&amp;lt;&amp;lt;extend&amp;gt;&amp;gt;&lt;/font&gt;" style="text;html=1;align=center;verticalAlign=middle;resizable=0;points=[];autosize=1;strokeColor=none;fillColor=none;fontSize=20;fontStyle=1;strokeWidth=2;" parent="1" vertex="1">
          <mxGeometry x="-8260.28" y="7331" width="130" height="40" as="geometry" />
        </mxCell>
        <mxCell id="D2uAuJA1LaHFy1BpvuMR-213" value="&lt;font style=&quot;font-size: 20px;&quot;&gt;&amp;lt;&amp;lt;extend&amp;gt;&amp;gt;&lt;/font&gt;" style="text;html=1;align=center;verticalAlign=middle;resizable=0;points=[];autosize=1;strokeColor=none;fillColor=none;fontSize=20;fontStyle=1;strokeWidth=2;" parent="1" vertex="1">
          <mxGeometry x="-8259.210000000003" y="7271" width="130" height="40" as="geometry" />
        </mxCell>
        <mxCell id="D2uAuJA1LaHFy1BpvuMR-214" value="&lt;font style=&quot;font-size: 20px;&quot;&gt;&amp;lt;&amp;lt;extend&amp;gt;&amp;gt;&lt;/font&gt;" style="text;html=1;align=center;verticalAlign=middle;resizable=0;points=[];autosize=1;strokeColor=none;fillColor=none;fontSize=20;fontStyle=1;strokeWidth=2;" parent="1" vertex="1">
          <mxGeometry x="-8288.460000000001" y="7121" width="130" height="40" as="geometry" />
        </mxCell>
        <mxCell id="D2uAuJA1LaHFy1BpvuMR-215" value="&lt;font style=&quot;font-size: 20px;&quot;&gt;&amp;lt;&amp;lt;extend&amp;gt;&amp;gt;&lt;/font&gt;" style="text;html=1;align=center;verticalAlign=middle;resizable=0;points=[];autosize=1;strokeColor=none;fillColor=none;fontSize=20;fontStyle=1;strokeWidth=2;" parent="1" vertex="1">
          <mxGeometry x="-8312.960000000001" y="7081" width="130" height="40" as="geometry" />
        </mxCell>
        <mxCell id="D2uAuJA1LaHFy1BpvuMR-216" value="&lt;font style=&quot;font-size: 20px;&quot;&gt;&amp;lt;&amp;lt;extend&amp;gt;&amp;gt;&lt;/font&gt;" style="text;html=1;align=center;verticalAlign=middle;resizable=0;points=[];autosize=1;strokeColor=none;fillColor=none;fontSize=20;fontStyle=1;strokeWidth=2;" parent="1" vertex="1">
          <mxGeometry x="-8307.940000000002" y="6901" width="130" height="40" as="geometry" />
        </mxCell>
        <mxCell id="D2uAuJA1LaHFy1BpvuMR-217" value="&lt;font style=&quot;font-size: 20px;&quot;&gt;&amp;lt;&amp;lt;extend&amp;gt;&amp;gt;&lt;/font&gt;" style="text;html=1;align=center;verticalAlign=middle;resizable=0;points=[];autosize=1;strokeColor=none;fillColor=none;fontSize=20;fontStyle=1;strokeWidth=2;" parent="1" vertex="1">
          <mxGeometry x="-8263.020000000002" y="7961" width="130" height="40" as="geometry" />
        </mxCell>
        <mxCell id="D2uAuJA1LaHFy1BpvuMR-218" value="&lt;font style=&quot;font-size: 20px;&quot;&gt;&amp;lt;&amp;lt;extend&amp;gt;&amp;gt;&lt;/font&gt;" style="text;html=1;align=center;verticalAlign=middle;resizable=0;points=[];autosize=1;strokeColor=none;fillColor=none;fontSize=20;fontStyle=1;strokeWidth=2;" parent="1" vertex="1">
          <mxGeometry x="-8288.460000000003" y="7913.5" width="130" height="40" as="geometry" />
        </mxCell>
        <mxCell id="D2uAuJA1LaHFy1BpvuMR-219" value="&lt;font style=&quot;font-size: 20px;&quot;&gt;&amp;lt;&amp;lt;extend&amp;gt;&amp;gt;&lt;/font&gt;" style="text;html=1;align=center;verticalAlign=middle;resizable=0;points=[];autosize=1;strokeColor=none;fillColor=none;fontSize=20;fontStyle=1;strokeWidth=2;" parent="1" vertex="1">
          <mxGeometry x="-8282.880000000003" y="7761" width="130" height="40" as="geometry" />
        </mxCell>
        <mxCell id="D2uAuJA1LaHFy1BpvuMR-220" value="&lt;font style=&quot;font-size: 20px;&quot;&gt;&amp;lt;&amp;lt;extend&amp;gt;&amp;gt;&lt;/font&gt;" style="text;html=1;align=center;verticalAlign=middle;resizable=0;points=[];autosize=1;strokeColor=none;fillColor=none;fontSize=20;fontStyle=1;strokeWidth=2;" parent="1" vertex="1">
          <mxGeometry x="-8298.130000000003" y="7711" width="130" height="40" as="geometry" />
        </mxCell>
        <mxCell id="D2uAuJA1LaHFy1BpvuMR-221" value="&lt;font style=&quot;font-size: 20px;&quot;&gt;&amp;lt;&amp;lt;extend&amp;gt;&amp;gt;&lt;/font&gt;" style="text;html=1;align=center;verticalAlign=middle;resizable=0;points=[];autosize=1;strokeColor=none;fillColor=none;fontSize=20;fontStyle=1;strokeWidth=2;" parent="1" vertex="1">
          <mxGeometry x="-8272.610000000002" y="7571" width="130" height="40" as="geometry" />
        </mxCell>
        <mxCell id="D2uAuJA1LaHFy1BpvuMR-222" value="&lt;font style=&quot;font-size: 20px;&quot;&gt;&amp;lt;&amp;lt;extend&amp;gt;&amp;gt;&lt;/font&gt;" style="text;html=1;align=center;verticalAlign=middle;resizable=0;points=[];autosize=1;strokeColor=none;fillColor=none;fontSize=20;fontStyle=1;strokeWidth=2;" parent="1" vertex="1">
          <mxGeometry x="-8272.610000000002" y="8531" width="130" height="40" as="geometry" />
        </mxCell>
        <mxCell id="D2uAuJA1LaHFy1BpvuMR-223" value="&lt;font style=&quot;font-size: 20px;&quot;&gt;&amp;lt;&amp;lt;extend&amp;gt;&amp;gt;&lt;/font&gt;" style="text;html=1;align=center;verticalAlign=middle;resizable=0;points=[];autosize=1;strokeColor=none;fillColor=none;fontSize=20;fontStyle=1;strokeWidth=2;" parent="1" vertex="1">
          <mxGeometry x="-8259.210000000001" y="8391" width="130" height="40" as="geometry" />
        </mxCell>
        <mxCell id="D2uAuJA1LaHFy1BpvuMR-224" value="&lt;font style=&quot;font-size: 20px;&quot;&gt;&amp;lt;&amp;lt;extend&amp;gt;&amp;gt;&lt;/font&gt;" style="text;html=1;align=center;verticalAlign=middle;resizable=0;points=[];autosize=1;strokeColor=none;fillColor=none;fontSize=20;fontStyle=1;strokeWidth=2;" parent="1" vertex="1">
          <mxGeometry x="-8260.28" y="8331" width="130" height="40" as="geometry" />
        </mxCell>
        <mxCell id="D2uAuJA1LaHFy1BpvuMR-225" value="&lt;font style=&quot;font-size: 20px;&quot;&gt;&amp;lt;&amp;lt;extend&amp;gt;&amp;gt;&lt;/font&gt;" style="text;html=1;align=center;verticalAlign=middle;resizable=0;points=[];autosize=1;strokeColor=none;fillColor=none;fontSize=20;fontStyle=1;strokeWidth=2;" parent="1" vertex="1">
          <mxGeometry x="-8247.85" y="8191" width="130" height="40" as="geometry" />
        </mxCell>
        <mxCell id="D2uAuJA1LaHFy1BpvuMR-226" value="&lt;font style=&quot;font-size: 20px;&quot;&gt;&amp;lt;&amp;lt;extend&amp;gt;&amp;gt;&lt;/font&gt;" style="text;html=1;align=center;verticalAlign=middle;resizable=0;points=[];autosize=1;strokeColor=none;fillColor=none;fontSize=20;fontStyle=1;strokeWidth=2;" parent="1" vertex="1">
          <mxGeometry x="-8280.300000000001" y="8131" width="130" height="40" as="geometry" />
        </mxCell>
        <mxCell id="D2uAuJA1LaHFy1BpvuMR-227" value="&lt;font style=&quot;font-size: 20px;&quot;&gt;&amp;lt;&amp;lt;extend&amp;gt;&amp;gt;&lt;/font&gt;" style="text;html=1;align=center;verticalAlign=middle;resizable=0;points=[];autosize=1;strokeColor=none;fillColor=none;fontSize=20;fontStyle=1;strokeWidth=2;" parent="1" vertex="1">
          <mxGeometry x="-8267.300000000001" y="8601" width="130" height="40" as="geometry" />
        </mxCell>
        <mxCell id="D2uAuJA1LaHFy1BpvuMR-229" value="" style="endArrow=none;html=1;rounded=0;exitX=0;exitY=0.5;exitDx=0;exitDy=0;fontSize=20;fontStyle=1;strokeWidth=2;entryX=1;entryY=0.3333333333333333;entryDx=0;entryDy=0;entryPerimeter=0;" parent="1" source="D2uAuJA1LaHFy1BpvuMR-228" target="D2uAuJA1LaHFy1BpvuMR-8" edge="1">
          <mxGeometry width="50" height="50" relative="1" as="geometry">
            <mxPoint x="-8730.880000000001" y="660" as="sourcePoint" />
            <mxPoint x="-9480" y="720" as="targetPoint" />
          </mxGeometry>
        </mxCell>
        <mxCell id="D2uAuJA1LaHFy1BpvuMR-236" value="" style="endArrow=none;html=1;rounded=0;entryX=0;entryY=0.5;entryDx=0;entryDy=0;fontSize=20;fontStyle=1;strokeWidth=2;exitX=1;exitY=0.3333333333333333;exitDx=0;exitDy=0;exitPerimeter=0;" parent="1" source="D2uAuJA1LaHFy1BpvuMR-8" target="D2uAuJA1LaHFy1BpvuMR-235" edge="1">
          <mxGeometry width="50" height="50" relative="1" as="geometry">
            <mxPoint x="-9480" y="720" as="sourcePoint" />
            <mxPoint x="-8730.880000000001" y="470" as="targetPoint" />
          </mxGeometry>
        </mxCell>
        <mxCell id="D2uAuJA1LaHFy1BpvuMR-244" value="" style="endArrow=none;html=1;rounded=0;exitX=0;exitY=0.5;exitDx=0;exitDy=0;fontSize=20;fontStyle=1;strokeWidth=2;entryX=0.939;entryY=0.346;entryDx=0;entryDy=0;entryPerimeter=0;" parent="1" source="D2uAuJA1LaHFy1BpvuMR-243" target="D2uAuJA1LaHFy1BpvuMR-22" edge="1">
          <mxGeometry width="50" height="50" relative="1" as="geometry">
            <mxPoint x="-9358.75" y="2579" as="sourcePoint" />
            <mxPoint x="-9316.5" y="2529" as="targetPoint" />
          </mxGeometry>
        </mxCell>
        <mxCell id="D2uAuJA1LaHFy1BpvuMR-253" value="" style="endArrow=none;html=1;rounded=0;entryX=0;entryY=0.5;entryDx=0;entryDy=0;fontSize=20;fontStyle=1;strokeWidth=2;" parent="1" target="D2uAuJA1LaHFy1BpvuMR-1" edge="1">
          <mxGeometry width="50" height="50" relative="1" as="geometry">
            <mxPoint x="-9390" y="4090" as="sourcePoint" />
            <mxPoint x="-9305.33" y="3931" as="targetPoint" />
          </mxGeometry>
        </mxCell>
        <mxCell id="D2uAuJA1LaHFy1BpvuMR-254" value="" style="endArrow=none;html=1;rounded=0;entryX=0;entryY=0.5;entryDx=0;entryDy=0;fontSize=20;fontStyle=1;strokeWidth=2;" parent="1" target="D2uAuJA1LaHFy1BpvuMR-2" edge="1">
          <mxGeometry width="50" height="50" relative="1" as="geometry">
            <mxPoint x="-9390" y="4090" as="sourcePoint" />
            <mxPoint x="-8695.33" y="3771" as="targetPoint" />
          </mxGeometry>
        </mxCell>
        <mxCell id="D2uAuJA1LaHFy1BpvuMR-258" value="" style="endArrow=none;html=1;rounded=0;exitX=0;exitY=0.5;exitDx=0;exitDy=0;fontSize=20;fontStyle=1;strokeWidth=2;" parent="1" source="D2uAuJA1LaHFy1BpvuMR-145" edge="1">
          <mxGeometry width="50" height="50" relative="1" as="geometry">
            <mxPoint x="-9405.33" y="4042" as="sourcePoint" />
            <mxPoint x="-9390" y="4092" as="targetPoint" />
          </mxGeometry>
        </mxCell>
        <mxCell id="D2uAuJA1LaHFy1BpvuMR-259" value="" style="endArrow=none;html=1;rounded=0;entryX=0;entryY=0.5;entryDx=0;entryDy=0;fontSize=20;fontStyle=1;strokeWidth=2;exitX=1;exitY=0.3333333333333333;exitDx=0;exitDy=0;exitPerimeter=0;" parent="1" source="D2uAuJA1LaHFy1BpvuMR-13" target="D2uAuJA1LaHFy1BpvuMR-91" edge="1">
          <mxGeometry width="50" height="50" relative="1" as="geometry">
            <mxPoint x="-9532.25" y="5801" as="sourcePoint" />
            <mxPoint x="-9482.25" y="5731" as="targetPoint" />
          </mxGeometry>
        </mxCell>
        <mxCell id="D2uAuJA1LaHFy1BpvuMR-260" value="" style="endArrow=none;html=1;rounded=0;entryX=0;entryY=0.5;entryDx=0;entryDy=0;fontSize=20;fontStyle=1;strokeWidth=2;exitX=1;exitY=0.3333333333333333;exitDx=0;exitDy=0;exitPerimeter=0;" parent="1" source="D2uAuJA1LaHFy1BpvuMR-13" target="D2uAuJA1LaHFy1BpvuMR-26" edge="1">
          <mxGeometry width="50" height="50" relative="1" as="geometry">
            <mxPoint x="-9530" y="5801" as="sourcePoint" />
            <mxPoint x="-9482.25" y="5751" as="targetPoint" />
          </mxGeometry>
        </mxCell>
        <mxCell id="D2uAuJA1LaHFy1BpvuMR-261" value="" style="endArrow=none;html=1;rounded=0;entryX=0;entryY=0.5;entryDx=0;entryDy=0;fontSize=20;fontStyle=1;strokeWidth=2;exitX=1;exitY=0.3333333333333333;exitDx=0;exitDy=0;exitPerimeter=0;" parent="1" source="D2uAuJA1LaHFy1BpvuMR-13" target="D2uAuJA1LaHFy1BpvuMR-14" edge="1">
          <mxGeometry width="50" height="50" relative="1" as="geometry">
            <mxPoint x="-9532.25" y="5801" as="sourcePoint" />
            <mxPoint x="-9482.25" y="5751" as="targetPoint" />
          </mxGeometry>
        </mxCell>
        <mxCell id="D2uAuJA1LaHFy1BpvuMR-264" value="" style="endArrow=none;html=1;rounded=0;entryX=0;entryY=0.5;entryDx=0;entryDy=0;fontSize=20;fontStyle=1;strokeWidth=2;exitX=1;exitY=0.3333333333333333;exitDx=0;exitDy=0;exitPerimeter=0;" parent="1" source="D2uAuJA1LaHFy1BpvuMR-13" target="D2uAuJA1LaHFy1BpvuMR-16" edge="1">
          <mxGeometry width="50" height="50" relative="1" as="geometry">
            <mxPoint x="-9532.25" y="5801" as="sourcePoint" />
            <mxPoint x="-9482.25" y="5751" as="targetPoint" />
          </mxGeometry>
        </mxCell>
        <mxCell id="D2uAuJA1LaHFy1BpvuMR-265" value="" style="endArrow=none;html=1;rounded=0;entryX=0;entryY=0.5;entryDx=0;entryDy=0;fontSize=20;fontStyle=1;strokeWidth=2;exitX=1;exitY=0.3333333333333333;exitDx=0;exitDy=0;exitPerimeter=0;" parent="1" source="D2uAuJA1LaHFy1BpvuMR-13" target="D2uAuJA1LaHFy1BpvuMR-17" edge="1">
          <mxGeometry width="50" height="50" relative="1" as="geometry">
            <mxPoint x="-9532.25" y="5801" as="sourcePoint" />
            <mxPoint x="-9482.25" y="5751" as="targetPoint" />
          </mxGeometry>
        </mxCell>
        <mxCell id="D2uAuJA1LaHFy1BpvuMR-266" value="" style="endArrow=none;html=1;rounded=0;entryX=0;entryY=0.5;entryDx=0;entryDy=0;fontSize=20;fontStyle=1;strokeWidth=2;exitX=1;exitY=0.3333333333333333;exitDx=0;exitDy=0;exitPerimeter=0;" parent="1" source="D2uAuJA1LaHFy1BpvuMR-13" target="D2uAuJA1LaHFy1BpvuMR-30" edge="1">
          <mxGeometry width="50" height="50" relative="1" as="geometry">
            <mxPoint x="-9532.25" y="5801" as="sourcePoint" />
            <mxPoint x="-8752.25" y="6291" as="targetPoint" />
          </mxGeometry>
        </mxCell>
        <mxCell id="D2uAuJA1LaHFy1BpvuMR-267" value="" style="endArrow=none;html=1;rounded=0;exitX=0;exitY=0.5;exitDx=0;exitDy=0;fontSize=20;fontStyle=1;strokeWidth=2;entryX=1;entryY=0.3333333333333333;entryDx=0;entryDy=0;entryPerimeter=0;" parent="1" source="D2uAuJA1LaHFy1BpvuMR-29" target="D2uAuJA1LaHFy1BpvuMR-13" edge="1">
          <mxGeometry width="50" height="50" relative="1" as="geometry">
            <mxPoint x="-9772.25" y="6351" as="sourcePoint" />
            <mxPoint x="-9532.25" y="5801" as="targetPoint" />
          </mxGeometry>
        </mxCell>
        <mxCell id="D2uAuJA1LaHFy1BpvuMR-268" value="" style="endArrow=none;html=1;rounded=0;exitX=0;exitY=0.5;exitDx=0;exitDy=0;fontSize=20;fontStyle=1;strokeWidth=2;entryX=1;entryY=0.3333333333333333;entryDx=0;entryDy=0;entryPerimeter=0;" parent="1" source="D2uAuJA1LaHFy1BpvuMR-64" target="D2uAuJA1LaHFy1BpvuMR-13" edge="1">
          <mxGeometry width="50" height="50" relative="1" as="geometry">
            <mxPoint x="-9582.25" y="5851" as="sourcePoint" />
            <mxPoint x="-9532.25" y="5801" as="targetPoint" />
          </mxGeometry>
        </mxCell>
        <mxCell id="D2uAuJA1LaHFy1BpvuMR-269" value="" style="endArrow=none;html=1;rounded=0;exitX=0;exitY=0.5;exitDx=0;exitDy=0;fontSize=20;fontStyle=1;strokeWidth=2;entryX=1;entryY=0.3333333333333333;entryDx=0;entryDy=0;entryPerimeter=0;" parent="1" source="D2uAuJA1LaHFy1BpvuMR-28" target="D2uAuJA1LaHFy1BpvuMR-13" edge="1">
          <mxGeometry width="50" height="50" relative="1" as="geometry">
            <mxPoint x="-9572.25" y="5851" as="sourcePoint" />
            <mxPoint x="-9532.25" y="5801" as="targetPoint" />
          </mxGeometry>
        </mxCell>
        <mxCell id="D2uAuJA1LaHFy1BpvuMR-270" value="" style="endArrow=none;html=1;rounded=0;exitX=0;exitY=0.5;exitDx=0;exitDy=0;fontSize=20;fontStyle=1;strokeWidth=2;entryX=1;entryY=0.3333333333333333;entryDx=0;entryDy=0;entryPerimeter=0;" parent="1" source="D2uAuJA1LaHFy1BpvuMR-34" target="D2uAuJA1LaHFy1BpvuMR-13" edge="1">
          <mxGeometry width="50" height="50" relative="1" as="geometry">
            <mxPoint x="-9572.25" y="5851" as="sourcePoint" />
            <mxPoint x="-9532.25" y="5801" as="targetPoint" />
          </mxGeometry>
        </mxCell>
        <mxCell id="D2uAuJA1LaHFy1BpvuMR-271" value="" style="endArrow=none;html=1;rounded=0;fontSize=20;fontStyle=1;strokeWidth=2;entryX=1;entryY=0.3333333333333333;entryDx=0;entryDy=0;entryPerimeter=0;" parent="1" target="D2uAuJA1LaHFy1BpvuMR-13" edge="1">
          <mxGeometry width="50" height="50" relative="1" as="geometry">
            <mxPoint x="-8712" y="7116" as="sourcePoint" />
            <mxPoint x="-9532.25" y="5801" as="targetPoint" />
          </mxGeometry>
        </mxCell>
        <mxCell id="D2uAuJA1LaHFy1BpvuMR-272" value="" style="endArrow=none;html=1;rounded=0;exitX=0;exitY=0.5;exitDx=0;exitDy=0;fontSize=20;fontStyle=1;strokeWidth=2;entryX=1;entryY=0.3333333333333333;entryDx=0;entryDy=0;entryPerimeter=0;" parent="1" source="D2uAuJA1LaHFy1BpvuMR-41" target="D2uAuJA1LaHFy1BpvuMR-13" edge="1">
          <mxGeometry width="50" height="50" relative="1" as="geometry">
            <mxPoint x="-9552.25" y="5861" as="sourcePoint" />
            <mxPoint x="-9532.25" y="5801" as="targetPoint" />
          </mxGeometry>
        </mxCell>
        <mxCell id="D2uAuJA1LaHFy1BpvuMR-273" value="" style="endArrow=none;html=1;rounded=0;exitX=0;exitY=0.5;exitDx=0;exitDy=0;fontSize=20;fontStyle=1;strokeWidth=2;entryX=1;entryY=0.3333333333333333;entryDx=0;entryDy=0;entryPerimeter=0;" parent="1" source="D2uAuJA1LaHFy1BpvuMR-42" target="D2uAuJA1LaHFy1BpvuMR-13" edge="1">
          <mxGeometry width="50" height="50" relative="1" as="geometry">
            <mxPoint x="-9152.25" y="6991.695906929348" as="sourcePoint" />
            <mxPoint x="-9532.25" y="5801" as="targetPoint" />
          </mxGeometry>
        </mxCell>
        <mxCell id="D2uAuJA1LaHFy1BpvuMR-274" value="" style="endArrow=none;html=1;rounded=0;exitX=0;exitY=0.5;exitDx=0;exitDy=0;fontSize=20;fontStyle=1;strokeWidth=2;entryX=1;entryY=0.3333333333333333;entryDx=0;entryDy=0;entryPerimeter=0;" parent="1" source="D2uAuJA1LaHFy1BpvuMR-43" target="D2uAuJA1LaHFy1BpvuMR-13" edge="1">
          <mxGeometry width="50" height="50" relative="1" as="geometry">
            <mxPoint x="-9602.25" y="6441" as="sourcePoint" />
            <mxPoint x="-9532.25" y="5801" as="targetPoint" />
          </mxGeometry>
        </mxCell>
        <mxCell id="D2uAuJA1LaHFy1BpvuMR-275" value="" style="endArrow=none;html=1;rounded=0;exitX=0;exitY=0.5;exitDx=0;exitDy=0;fontSize=20;fontStyle=1;strokeWidth=2;entryX=1;entryY=0.3333333333333333;entryDx=0;entryDy=0;entryPerimeter=0;" parent="1" source="D2uAuJA1LaHFy1BpvuMR-44" target="D2uAuJA1LaHFy1BpvuMR-13" edge="1">
          <mxGeometry width="50" height="50" relative="1" as="geometry">
            <mxPoint x="-9282.25" y="7502.454634232955" as="sourcePoint" />
            <mxPoint x="-9532.25" y="5801" as="targetPoint" />
          </mxGeometry>
        </mxCell>
        <mxCell id="D2uAuJA1LaHFy1BpvuMR-276" value="" style="endArrow=none;html=1;rounded=0;exitX=0;exitY=0.5;exitDx=0;exitDy=0;fontSize=20;fontStyle=1;strokeWidth=2;entryX=1;entryY=0.3333333333333333;entryDx=0;entryDy=0;entryPerimeter=0;" parent="1" source="D2uAuJA1LaHFy1BpvuMR-45" target="D2uAuJA1LaHFy1BpvuMR-13" edge="1">
          <mxGeometry width="50" height="50" relative="1" as="geometry">
            <mxPoint x="-9572.25" y="5861" as="sourcePoint" />
            <mxPoint x="-9532.25" y="5801" as="targetPoint" />
          </mxGeometry>
        </mxCell>
        <mxCell id="D2uAuJA1LaHFy1BpvuMR-277" value="" style="endArrow=none;html=1;rounded=0;exitX=0;exitY=0.5;exitDx=0;exitDy=0;fontSize=20;fontStyle=1;strokeWidth=2;entryX=1;entryY=0.3333333333333333;entryDx=0;entryDy=0;entryPerimeter=0;" parent="1" source="D2uAuJA1LaHFy1BpvuMR-46" target="D2uAuJA1LaHFy1BpvuMR-13" edge="1">
          <mxGeometry width="50" height="50" relative="1" as="geometry">
            <mxPoint x="-9562.25" y="5861" as="sourcePoint" />
            <mxPoint x="-9532.25" y="5801" as="targetPoint" />
          </mxGeometry>
        </mxCell>
        <mxCell id="D2uAuJA1LaHFy1BpvuMR-278" value="" style="endArrow=none;html=1;rounded=0;exitX=0;exitY=0.5;exitDx=0;exitDy=0;fontSize=20;fontStyle=1;strokeWidth=2;entryX=1;entryY=0.3333333333333333;entryDx=0;entryDy=0;entryPerimeter=0;" parent="1" source="D2uAuJA1LaHFy1BpvuMR-142" target="D2uAuJA1LaHFy1BpvuMR-13" edge="1">
          <mxGeometry width="50" height="50" relative="1" as="geometry">
            <mxPoint x="-9582.25" y="5881" as="sourcePoint" />
            <mxPoint x="-9532.25" y="5801" as="targetPoint" />
          </mxGeometry>
        </mxCell>
        <mxCell id="D2uAuJA1LaHFy1BpvuMR-279" value="" style="endArrow=none;html=1;rounded=0;entryX=0;entryY=0.5;entryDx=0;entryDy=0;fontSize=20;fontStyle=1;strokeWidth=2;" parent="1" target="D2uAuJA1LaHFy1BpvuMR-20" edge="1">
          <mxGeometry width="50" height="50" relative="1" as="geometry">
            <mxPoint x="-9630" y="9050" as="sourcePoint" />
            <mxPoint x="-9490.24" y="9031" as="targetPoint" />
          </mxGeometry>
        </mxCell>
        <mxCell id="D2uAuJA1LaHFy1BpvuMR-280" value="" style="endArrow=none;html=1;rounded=0;entryX=0;entryY=0.5;entryDx=0;entryDy=0;fontSize=20;fontStyle=1;strokeWidth=2;" parent="1" target="D2uAuJA1LaHFy1BpvuMR-239" edge="1">
          <mxGeometry width="50" height="50" relative="1" as="geometry">
            <mxPoint x="-9630" y="9050" as="sourcePoint" />
            <mxPoint x="-7987.620000000009" y="9231" as="targetPoint" />
          </mxGeometry>
        </mxCell>
        <mxCell id="D2uAuJA1LaHFy1BpvuMR-281" value="" style="endArrow=none;html=1;rounded=0;entryX=0;entryY=0.5;entryDx=0;entryDy=0;fontSize=20;fontStyle=1;strokeWidth=2;" parent="1" target="D2uAuJA1LaHFy1BpvuMR-21" edge="1">
          <mxGeometry width="50" height="50" relative="1" as="geometry">
            <mxPoint x="-9630" y="9050" as="sourcePoint" />
            <mxPoint x="-9490.24" y="9031" as="targetPoint" />
          </mxGeometry>
        </mxCell>
        <mxCell id="D2uAuJA1LaHFy1BpvuMR-303" style="edgeStyle=orthogonalEdgeStyle;rounded=0;orthogonalLoop=1;jettySize=auto;html=1;exitX=0.5;exitY=1;exitDx=0;exitDy=0;fontSize=20;fontStyle=1;strokeWidth=2;" parent="1" source="D2uAuJA1LaHFy1BpvuMR-95" target="D2uAuJA1LaHFy1BpvuMR-95" edge="1">
          <mxGeometry relative="1" as="geometry" />
        </mxCell>
        <mxCell id="D2uAuJA1LaHFy1BpvuMR-304" value="&lt;font style=&quot;font-size: 20px;&quot;&gt;Rate Performance&lt;/font&gt;" style="ellipse;whiteSpace=wrap;html=1;fontSize=20;fontStyle=1;strokeWidth=2;" parent="1" vertex="1">
          <mxGeometry x="-8722.33" y="5701" width="365" height="80" as="geometry" />
        </mxCell>
        <mxCell id="D2uAuJA1LaHFy1BpvuMR-305" value="" style="endArrow=none;html=1;rounded=0;entryX=0;entryY=0.5;entryDx=0;entryDy=0;fontSize=20;fontStyle=1;strokeWidth=2;exitX=1;exitY=0.3333333333333333;exitDx=0;exitDy=0;exitPerimeter=0;" parent="1" source="D2uAuJA1LaHFy1BpvuMR-13" target="D2uAuJA1LaHFy1BpvuMR-304" edge="1">
          <mxGeometry width="50" height="50" relative="1" as="geometry">
            <mxPoint x="-9530" y="5801" as="sourcePoint" />
            <mxPoint x="-9480" y="5751" as="targetPoint" />
          </mxGeometry>
        </mxCell>
        <mxCell id="D2uAuJA1LaHFy1BpvuMR-308" style="edgeStyle=orthogonalEdgeStyle;rounded=0;orthogonalLoop=1;jettySize=auto;html=1;exitX=0.5;exitY=1;exitDx=0;exitDy=0;fontSize=20;fontStyle=1;strokeWidth=2;" parent="1" edge="1">
          <mxGeometry relative="1" as="geometry">
            <mxPoint x="-8092.619999999999" y="9370" as="sourcePoint" />
            <mxPoint x="-8092.619999999999" y="9370" as="targetPoint" />
          </mxGeometry>
        </mxCell>
        <mxCell id="D2uAuJA1LaHFy1BpvuMR-309" style="edgeStyle=orthogonalEdgeStyle;rounded=0;orthogonalLoop=1;jettySize=auto;html=1;exitX=0.5;exitY=1;exitDx=0;exitDy=0;fontSize=20;fontStyle=1;strokeWidth=2;" parent="1" edge="1">
          <mxGeometry relative="1" as="geometry">
            <mxPoint x="-8112.1" y="7276" as="sourcePoint" />
            <mxPoint x="-8112.1" y="7276" as="targetPoint" />
          </mxGeometry>
        </mxCell>
        <mxCell id="D2uAuJA1LaHFy1BpvuMR-310" value="Generate Monthly Attendance Report" style="ellipse;whiteSpace=wrap;html=1;fontSize=20;fontStyle=1;strokeWidth=2;" parent="1" vertex="1">
          <mxGeometry x="-8011.750000000001" y="6651" width="417.59" height="75" as="geometry" />
        </mxCell>
        <mxCell id="D2uAuJA1LaHFy1BpvuMR-311" value="" style="endArrow=open;dashed=1;html=1;rounded=0;exitX=0;exitY=0.5;exitDx=0;exitDy=0;entryX=1;entryY=0.5;entryDx=0;entryDy=0;endFill=0;endSize=12;fontSize=20;fontStyle=1;strokeWidth=2;" parent="1" source="D2uAuJA1LaHFy1BpvuMR-310" target="D2uAuJA1LaHFy1BpvuMR-28" edge="1">
          <mxGeometry width="50" height="50" relative="1" as="geometry">
            <mxPoint x="-8160.620000000001" y="6799" as="sourcePoint" />
            <mxPoint x="-8335.62" y="6717" as="targetPoint" />
          </mxGeometry>
        </mxCell>
        <mxCell id="D2uAuJA1LaHFy1BpvuMR-312" value="&lt;font style=&quot;font-size: 20px;&quot;&gt;&amp;lt;&amp;lt;extend&amp;gt;&amp;gt;&lt;/font&gt;" style="text;html=1;align=center;verticalAlign=middle;resizable=0;points=[];autosize=1;strokeColor=none;fillColor=none;fontSize=20;fontStyle=1;strokeWidth=2;" parent="1" vertex="1">
          <mxGeometry x="-8320.320000000002" y="6661" width="130" height="40" as="geometry" />
        </mxCell>
        <mxCell id="D2uAuJA1LaHFy1BpvuMR-322" value="" style="endArrow=none;dashed=1;html=1;dashPattern=1 3;strokeWidth=2;rounded=0;entryX=0.5;entryY=0;entryDx=0;entryDy=0;fontSize=20;startArrow=open;startFill=0;startSize=12;fontStyle=1" parent="1" target="D2uAuJA1LaHFy1BpvuMR-319" edge="1">
          <mxGeometry width="50" height="50" relative="1" as="geometry">
            <mxPoint x="-8330" y="1890" as="sourcePoint" />
            <mxPoint x="-8031.72" y="1605" as="targetPoint" />
          </mxGeometry>
        </mxCell>
        <mxCell id="D2uAuJA1LaHFy1BpvuMR-324" value="" style="endArrow=none;dashed=1;html=1;dashPattern=1 3;strokeWidth=2;rounded=0;entryX=0.5;entryY=0;entryDx=0;entryDy=0;exitX=0.925;exitY=0.79;exitDx=0;exitDy=0;fontSize=20;startArrow=open;startFill=0;startSize=12;fontStyle=1;exitPerimeter=0;" parent="1" source="D2uAuJA1LaHFy1BpvuMR-92" target="D2uAuJA1LaHFy1BpvuMR-320" edge="1">
          <mxGeometry width="50" height="50" relative="1" as="geometry">
            <mxPoint x="-8353.72" y="1165" as="sourcePoint" />
            <mxPoint x="-8031.72" y="1605" as="targetPoint" />
          </mxGeometry>
        </mxCell>
        <mxCell id="D2uAuJA1LaHFy1BpvuMR-326" value="" style="endArrow=none;dashed=1;html=1;dashPattern=1 3;strokeWidth=2;rounded=0;fontSize=20;startArrow=open;startFill=0;startSize=12;fontStyle=1;exitX=0.986;exitY=0.625;exitDx=0;exitDy=0;exitPerimeter=0;" parent="1" source="D2uAuJA1LaHFy1BpvuMR-92" target="D2uAuJA1LaHFy1BpvuMR-321" edge="1">
          <mxGeometry width="50" height="50" relative="1" as="geometry">
            <mxPoint x="-8320" y="1900" as="sourcePoint" />
            <mxPoint x="-8031.72" y="1605" as="targetPoint" />
          </mxGeometry>
        </mxCell>
        <mxCell id="ttdvyG4UByGEfmeALYzm-1" value="" style="endArrow=none;html=1;rounded=0;strokeWidth=2;exitX=0;exitY=0.3333333333333333;exitDx=0;exitDy=0;exitPerimeter=0;" parent="1" source="D2uAuJA1LaHFy1BpvuMR-13" edge="1">
          <mxGeometry width="50" height="50" relative="1" as="geometry">
            <mxPoint x="-9599.64" y="5716.000000000001" as="sourcePoint" />
            <mxPoint x="-9600" y="830.96" as="targetPoint" />
          </mxGeometry>
        </mxCell>
        <mxCell id="7kRDTScoJdhUVzWF_K4i-1" value="" style="endArrow=none;html=1;rounded=0;strokeWidth=2;" parent="1" edge="1">
          <mxGeometry width="50" height="50" relative="1" as="geometry">
            <mxPoint x="-9650" y="9020" as="sourcePoint" />
            <mxPoint x="-9660" y="830" as="targetPoint" />
          </mxGeometry>
        </mxCell>
        <mxCell id="7kRDTScoJdhUVzWF_K4i-3" value="" style="endArrow=none;html=1;rounded=0;strokeWidth=2;entryX=0;entryY=0.3333333333333333;entryDx=0;entryDy=0;entryPerimeter=0;" parent="1" target="D2uAuJA1LaHFy1BpvuMR-22" edge="1">
          <mxGeometry width="50" height="50" relative="1" as="geometry">
            <mxPoint x="-9470" y="830" as="sourcePoint" />
            <mxPoint x="-9370" y="2540" as="targetPoint" />
            <Array as="points">
              <mxPoint x="-9470" y="2518" />
            </Array>
          </mxGeometry>
        </mxCell>
        <mxCell id="7kRDTScoJdhUVzWF_K4i-4" value="" style="endArrow=none;html=1;rounded=0;strokeWidth=2;" parent="1" edge="1">
          <mxGeometry width="50" height="50" relative="1" as="geometry">
            <mxPoint x="-9660" y="830" as="sourcePoint" />
            <mxPoint x="-9470" y="830" as="targetPoint" />
          </mxGeometry>
        </mxCell>
        <mxCell id="7kRDTScoJdhUVzWF_K4i-5" value="" style="endArrow=block;html=1;rounded=0;endFill=0;strokeWidth=2;endSize=12;" parent="1" edge="1">
          <mxGeometry width="50" height="50" relative="1" as="geometry">
            <mxPoint x="-9550.150000000001" y="830" as="sourcePoint" />
            <mxPoint x="-9550" y="780" as="targetPoint" />
          </mxGeometry>
        </mxCell>
        <mxCell id="7kRDTScoJdhUVzWF_K4i-7" value="" style="endArrow=none;html=1;rounded=0;strokeWidth=2;entryX=0;entryY=0.5;entryDx=0;entryDy=0;exitX=1;exitY=0.3333333333333333;exitDx=0;exitDy=0;exitPerimeter=0;" parent="1" source="D2uAuJA1LaHFy1BpvuMR-8" target="7kRDTScoJdhUVzWF_K4i-6" edge="1">
          <mxGeometry width="50" height="50" relative="1" as="geometry">
            <mxPoint x="-9480" y="720" as="sourcePoint" />
            <mxPoint x="-8730" y="1810" as="targetPoint" />
          </mxGeometry>
        </mxCell>
        <mxCell id="7kRDTScoJdhUVzWF_K4i-330" value="&lt;font style=&quot;font-size: 20px;&quot;&gt;&amp;lt;&amp;lt;extend&amp;gt;&amp;gt;&lt;/font&gt;" style="text;html=1;align=center;verticalAlign=middle;resizable=0;points=[];autosize=1;strokeColor=none;fillColor=none;fontSize=20;fontStyle=1;strokeWidth=2;" parent="1" vertex="1">
          <mxGeometry x="-8259.210000000003" y="5071" width="130" height="40" as="geometry" />
        </mxCell>
        <mxCell id="_CZqN2XjWdIGPm7hQDea-2" value="" style="endArrow=none;html=1;rounded=0;entryX=0;entryY=0.5;entryDx=0;entryDy=0;fontSize=20;fontStyle=1;strokeWidth=2;" parent="1" target="D2uAuJA1LaHFy1BpvuMR-5" edge="1">
          <mxGeometry width="50" height="50" relative="1" as="geometry">
            <mxPoint x="-9390" y="4090" as="sourcePoint" />
            <mxPoint x="-8265.92" y="3666" as="targetPoint" />
          </mxGeometry>
        </mxCell>
        <mxCell id="D2uAuJA1LaHFy1BpvuMR-19" value="Managing Director" style="shape=umlActor;verticalLabelPosition=bottom;verticalAlign=top;html=1;fontSize=20;fontStyle=1;strokeWidth=2;" parent="1" vertex="1">
          <mxGeometry x="-9670" y="9021" width="40" height="80" as="geometry" />
        </mxCell>
        <mxCell id="EfS-6Uey1ptOtGm0Xwp3-2" value="" style="swimlane;startSize=0;" parent="1" vertex="1">
          <mxGeometry x="-9180" y="140" width="2120" height="9574" as="geometry" />
        </mxCell>
        <mxCell id="D2uAuJA1LaHFy1BpvuMR-27" value="&lt;font style=&quot;font-size: 31px;&quot;&gt;Proposed Use case for Employee Management System&lt;/font&gt;" style="text;html=1;align=center;verticalAlign=middle;resizable=0;points=[];autosize=1;strokeColor=none;fillColor=none;fontSize=20;fontStyle=1;strokeWidth=2;" parent="EfS-6Uey1ptOtGm0Xwp3-2" vertex="1">
          <mxGeometry x="641.8799999999982" y="20" width="790" height="50" as="geometry" />
        </mxCell>
        <mxCell id="D2uAuJA1LaHFy1BpvuMR-4" value="Add Employee" style="ellipse;whiteSpace=wrap;html=1;fontSize=20;fontStyle=1;strokeWidth=2;" parent="EfS-6Uey1ptOtGm0Xwp3-2" vertex="1">
          <mxGeometry x="1227.289999999999" y="3770" width="370" height="70" as="geometry" />
        </mxCell>
        <mxCell id="D2uAuJA1LaHFy1BpvuMR-5" value="Search Employee" style="ellipse;whiteSpace=wrap;html=1;fontSize=20;fontStyle=1;strokeWidth=2;" parent="EfS-6Uey1ptOtGm0Xwp3-2" vertex="1">
          <mxGeometry x="620.79" y="3890" width="370" height="70" as="geometry" />
        </mxCell>
        <mxCell id="D2uAuJA1LaHFy1BpvuMR-2" value="Update Employee" style="ellipse;whiteSpace=wrap;html=1;fontSize=20;fontStyle=1;strokeWidth=2;" parent="EfS-6Uey1ptOtGm0Xwp3-2" vertex="1">
          <mxGeometry x="615.79" y="3780" width="375" height="70" as="geometry" />
        </mxCell>
        <mxCell id="D2uAuJA1LaHFy1BpvuMR-1" value="Employee Registartion" style="ellipse;whiteSpace=wrap;html=1;fontSize=20;fontStyle=1;strokeWidth=2;" parent="EfS-6Uey1ptOtGm0Xwp3-2" vertex="1">
          <mxGeometry x="618.2900000000009" y="3670" width="375" height="70" as="geometry" />
        </mxCell>
        <mxCell id="D2uAuJA1LaHFy1BpvuMR-243" value="&lt;font style=&quot;font-size: 20px;&quot;&gt;Calculate EPF/ETF&lt;/font&gt;" style="ellipse;whiteSpace=wrap;html=1;fontSize=20;fontStyle=1;strokeWidth=2;" parent="EfS-6Uey1ptOtGm0Xwp3-2" vertex="1">
          <mxGeometry x="601.0200000000001" y="3484" width="374.96" height="80" as="geometry" />
        </mxCell>
        <mxCell id="D2uAuJA1LaHFy1BpvuMR-48" value="Generate increment" style="ellipse;whiteSpace=wrap;html=1;fontSize=20;fontStyle=1;strokeWidth=2;" parent="EfS-6Uey1ptOtGm0Xwp3-2" vertex="1">
          <mxGeometry x="601.0200000000001" y="3304" width="357" height="75" as="geometry" />
        </mxCell>
        <mxCell id="D2uAuJA1LaHFy1BpvuMR-47" value="Generate bonus&amp;nbsp;" style="ellipse;whiteSpace=wrap;html=1;fontSize=20;fontStyle=1;strokeWidth=2;" parent="EfS-6Uey1ptOtGm0Xwp3-2" vertex="1">
          <mxGeometry x="590.0000000000001" y="3144" width="357" height="75" as="geometry" />
        </mxCell>
        <mxCell id="M7SqLtU8nE5RaAWXsQSm-1" value="Arrange Training" style="ellipse;whiteSpace=wrap;html=1;fontSize=20;fontStyle=1;strokeWidth=2;" parent="EfS-6Uey1ptOtGm0Xwp3-2" vertex="1">
          <mxGeometry x="627.4999999999982" y="4222" width="370" height="70" as="geometry" />
        </mxCell>
        <mxCell id="D2uAuJA1LaHFy1BpvuMR-23" value="Calculate Salaries" style="ellipse;whiteSpace=wrap;html=1;fontSize=20;fontStyle=1;strokeWidth=2;" parent="EfS-6Uey1ptOtGm0Xwp3-2" vertex="1">
          <mxGeometry x="590.000000000001" y="2944" width="357" height="75" as="geometry" />
        </mxCell>
        <mxCell id="D2uAuJA1LaHFy1BpvuMR-187" value="&lt;font style=&quot;font-size: 20px;&quot;&gt;&amp;lt;&amp;lt;extend&amp;gt;&amp;gt;&lt;/font&gt;" style="text;html=1;align=center;verticalAlign=middle;resizable=0;points=[];autosize=1;strokeColor=none;fillColor=none;fontSize=20;fontStyle=1;strokeWidth=2;" parent="EfS-6Uey1ptOtGm0Xwp3-2" vertex="1">
          <mxGeometry x="1035.9999999999998" y="3750.0000000000005" width="130" height="40" as="geometry" />
        </mxCell>
        <mxCell id="D2uAuJA1LaHFy1BpvuMR-188" value="&lt;font style=&quot;font-size: 20px;&quot;&gt;&amp;lt;&amp;lt;extend&amp;gt;&amp;gt;&lt;/font&gt;" style="text;html=1;align=center;verticalAlign=middle;resizable=0;points=[];autosize=1;strokeColor=none;fillColor=none;fontSize=20;fontStyle=1;strokeWidth=2;" parent="EfS-6Uey1ptOtGm0Xwp3-2" vertex="1">
          <mxGeometry x="975.9799999999998" y="2950.0000000000005" width="130" height="40" as="geometry" />
        </mxCell>
        <mxCell id="D2uAuJA1LaHFy1BpvuMR-190" value="&lt;font style=&quot;font-size: 20px;&quot;&gt;&amp;lt;&amp;lt;extend&amp;gt;&amp;gt;&lt;/font&gt;" style="text;html=1;align=center;verticalAlign=middle;resizable=0;points=[];autosize=1;strokeColor=none;fillColor=none;fontSize=20;fontStyle=1;strokeWidth=2;" parent="EfS-6Uey1ptOtGm0Xwp3-2" vertex="1">
          <mxGeometry x="906.0000000000005" y="2844.0000000000005" width="130" height="40" as="geometry" />
        </mxCell>
        <mxCell id="D2uAuJA1LaHFy1BpvuMR-31" value="Add OT" style="ellipse;whiteSpace=wrap;html=1;fontSize=20;fontStyle=1;strokeWidth=2;" parent="EfS-6Uey1ptOtGm0Xwp3-2" vertex="1">
          <mxGeometry x="1120" y="2884" width="149" height="59.61" as="geometry" />
        </mxCell>
        <mxCell id="D2uAuJA1LaHFy1BpvuMR-32" value="Add Bonus" style="ellipse;whiteSpace=wrap;html=1;fontSize=20;fontStyle=1;strokeWidth=2;" parent="EfS-6Uey1ptOtGm0Xwp3-2" vertex="1">
          <mxGeometry x="1108.5999999999997" y="2774.0000000000005" width="152.79" height="80" as="geometry" />
        </mxCell>
        <mxCell id="D2uAuJA1LaHFy1BpvuMR-33" value="Add Increment" style="ellipse;whiteSpace=wrap;html=1;fontSize=20;fontStyle=1;strokeWidth=2;" parent="EfS-6Uey1ptOtGm0Xwp3-2" vertex="1">
          <mxGeometry x="1139.9999999999995" y="2954.0000000000005" width="177.79" height="80" as="geometry" />
        </mxCell>
        <mxCell id="D2uAuJA1LaHFy1BpvuMR-63" value="Add NoPay" style="ellipse;whiteSpace=wrap;html=1;fontSize=20;fontStyle=1;strokeWidth=2;" parent="EfS-6Uey1ptOtGm0Xwp3-2" vertex="1">
          <mxGeometry x="1129.9999999999982" y="3064.0000000000005" width="165.79" height="70" as="geometry" />
        </mxCell>
        <mxCell id="D2uAuJA1LaHFy1BpvuMR-246" value="&lt;font style=&quot;font-size: 20px;&quot;&gt;Apply Sick Leave&lt;/font&gt;" style="ellipse;whiteSpace=wrap;html=1;fontSize=20;fontStyle=1;strokeWidth=2;" parent="EfS-6Uey1ptOtGm0Xwp3-2" vertex="1">
          <mxGeometry x="1650" y="730" width="190" height="70" as="geometry" />
        </mxCell>
        <mxCell id="D2uAuJA1LaHFy1BpvuMR-38" value="Apply Short Leave" style="ellipse;whiteSpace=wrap;html=1;fontSize=20;fontStyle=1;strokeWidth=2;" parent="EfS-6Uey1ptOtGm0Xwp3-2" vertex="1">
          <mxGeometry x="1650" y="630" width="190" height="70" as="geometry" />
        </mxCell>
        <mxCell id="D2uAuJA1LaHFy1BpvuMR-37" value="Apply Half day Leave" style="ellipse;whiteSpace=wrap;html=1;fontSize=20;fontStyle=1;strokeWidth=2;" parent="EfS-6Uey1ptOtGm0Xwp3-2" vertex="1">
          <mxGeometry x="1650" y="530" width="190" height="70" as="geometry" />
        </mxCell>
        <mxCell id="D2uAuJA1LaHFy1BpvuMR-36" value="ApplyFull Day Leave&amp;nbsp;" style="ellipse;whiteSpace=wrap;html=1;fontSize=20;fontStyle=1;strokeWidth=2;" parent="EfS-6Uey1ptOtGm0Xwp3-2" vertex="1">
          <mxGeometry x="1650" y="420" width="190" height="70" as="geometry" />
        </mxCell>
        <mxCell id="D2uAuJA1LaHFy1BpvuMR-249" value="&lt;font style=&quot;font-size: 20px;&quot;&gt;Apply maternity leave&lt;/font&gt;" style="ellipse;whiteSpace=wrap;html=1;fontSize=20;fontStyle=1;strokeWidth=2;" parent="EfS-6Uey1ptOtGm0Xwp3-2" vertex="1">
          <mxGeometry x="1649.999999999999" y="300" width="189" height="80" as="geometry" />
        </mxCell>
        <mxCell id="D2uAuJA1LaHFy1BpvuMR-248" value="&amp;lt;&amp;lt;extend&amp;gt;&amp;gt;" style="text;html=1;align=center;verticalAlign=middle;resizable=0;points=[];autosize=1;strokeColor=none;fillColor=none;fontSize=20;fontStyle=1;strokeWidth=2;" parent="EfS-6Uey1ptOtGm0Xwp3-2" vertex="1">
          <mxGeometry x="1487.5" y="720" width="130" height="40" as="geometry" />
        </mxCell>
        <mxCell id="D2uAuJA1LaHFy1BpvuMR-49" value="&amp;lt;&amp;lt;extend&amp;gt;&amp;gt;" style="text;html=1;align=center;verticalAlign=middle;resizable=0;points=[];autosize=1;strokeColor=none;fillColor=none;fontSize=20;fontStyle=1;strokeWidth=2;" parent="EfS-6Uey1ptOtGm0Xwp3-2" vertex="1">
          <mxGeometry x="1487.499999999999" y="630" width="130" height="40" as="geometry" />
        </mxCell>
        <mxCell id="D2uAuJA1LaHFy1BpvuMR-62" value="&amp;lt;&amp;lt;extend&amp;gt;&amp;gt;" style="text;html=1;align=center;verticalAlign=middle;resizable=0;points=[];autosize=1;strokeColor=none;fillColor=none;fontSize=20;fontStyle=1;strokeWidth=2;" parent="EfS-6Uey1ptOtGm0Xwp3-2" vertex="1">
          <mxGeometry x="1439.999999999999" y="545" width="130" height="40" as="geometry" />
        </mxCell>
        <mxCell id="D2uAuJA1LaHFy1BpvuMR-50" value="&amp;lt;&amp;lt;extend&amp;gt;&amp;gt;" style="text;html=1;align=center;verticalAlign=middle;resizable=0;points=[];autosize=1;strokeColor=none;fillColor=none;fontSize=20;fontStyle=1;strokeWidth=2;" parent="EfS-6Uey1ptOtGm0Xwp3-2" vertex="1">
          <mxGeometry x="1470" y="470" width="130" height="40" as="geometry" />
        </mxCell>
        <mxCell id="D2uAuJA1LaHFy1BpvuMR-250" value="&amp;lt;&amp;lt;extend&amp;gt;&amp;gt;" style="text;html=1;align=center;verticalAlign=middle;resizable=0;points=[];autosize=1;strokeColor=none;fillColor=none;fontSize=20;fontStyle=1;strokeWidth=2;" parent="EfS-6Uey1ptOtGm0Xwp3-2" vertex="1">
          <mxGeometry x="1431.880000000001" y="350" width="130" height="40" as="geometry" />
        </mxCell>
        <mxCell id="7EDJecUnycSH9LvbN0Oy-2" value="Login credentials" style="ellipse;whiteSpace=wrap;html=1;fontSize=20;fontStyle=1;strokeWidth=2;" parent="EfS-6Uey1ptOtGm0Xwp3-2" vertex="1">
          <mxGeometry x="1317.7899999999995" y="190" width="189" height="80" as="geometry" />
        </mxCell>
        <mxCell id="7EDJecUnycSH9LvbN0Oy-6" value="&amp;lt;&amp;lt;include&amp;gt;&amp;gt;" style="text;html=1;align=center;verticalAlign=middle;resizable=0;points=[];autosize=1;strokeColor=none;fillColor=none;fontSize=20;fontStyle=1;strokeWidth=2;" parent="EfS-6Uey1ptOtGm0Xwp3-2" vertex="1">
          <mxGeometry x="1036.5" y="190" width="130" height="40" as="geometry" />
        </mxCell>
        <mxCell id="D2uAuJA1LaHFy1BpvuMR-9" value="Apply leaves" style="ellipse;whiteSpace=wrap;html=1;fontSize=20;fontStyle=1;strokeWidth=2;" parent="EfS-6Uey1ptOtGm0Xwp3-2" vertex="1">
          <mxGeometry x="482.55000000000007" y="585" width="376.76" height="80" as="geometry" />
        </mxCell>
        <mxCell id="D2uAuJA1LaHFy1BpvuMR-235" value="&lt;font style=&quot;font-size: 20px;&quot;&gt;Check Leave Balance&lt;/font&gt;" style="ellipse;whiteSpace=wrap;html=1;fontSize=20;fontStyle=1;strokeWidth=2;" parent="EfS-6Uey1ptOtGm0Xwp3-2" vertex="1">
          <mxGeometry x="484.5499999999998" y="410" width="371" height="80" as="geometry" />
        </mxCell>
        <mxCell id="D2uAuJA1LaHFy1BpvuMR-247" value="" style="endArrow=open;dashed=1;html=1;rounded=0;endFill=0;startArrow=none;startFill=0;endSize=12;startSize=12;exitX=0.001;exitY=0.617;exitDx=0;exitDy=0;fontSize=20;fontStyle=1;strokeWidth=2;entryX=1;entryY=0.5;entryDx=0;entryDy=0;exitPerimeter=0;" parent="EfS-6Uey1ptOtGm0Xwp3-2" source="D2uAuJA1LaHFy1BpvuMR-246" edge="1">
          <mxGeometry width="50" height="50" relative="1" as="geometry">
            <mxPoint x="1643.2399999999946" y="775" as="sourcePoint" />
            <mxPoint x="870.0000000000002" y="630" as="targetPoint" />
            <Array as="points" />
          </mxGeometry>
        </mxCell>
        <mxCell id="D2uAuJA1LaHFy1BpvuMR-40" value="" style="endArrow=none;endSize=6;dashed=1;html=1;rounded=0;fontSize=20;endFill=0;startArrow=open;startFill=0;startSize=12;fontStyle=1;strokeWidth=2;entryX=0;entryY=0.5;entryDx=0;entryDy=0;exitX=1;exitY=0.5;exitDx=0;exitDy=0;" parent="EfS-6Uey1ptOtGm0Xwp3-2" source="D2uAuJA1LaHFy1BpvuMR-9" edge="1">
          <mxGeometry width="160" relative="1" as="geometry">
            <mxPoint x="880" y="620" as="sourcePoint" />
            <mxPoint x="1654.8999999999946" y="673.4" as="targetPoint" />
            <Array as="points" />
          </mxGeometry>
        </mxCell>
        <mxCell id="D2uAuJA1LaHFy1BpvuMR-61" value="" style="endArrow=none;dashed=1;endFill=0;endSize=6;html=1;rounded=0;entryX=0;entryY=0.5;entryDx=0;entryDy=0;fontSize=20;exitX=0.957;exitY=0.251;exitDx=0;exitDy=0;startSize=12;startArrow=open;startFill=0;exitPerimeter=0;fontStyle=1;strokeWidth=2;" parent="EfS-6Uey1ptOtGm0Xwp3-2" edge="1">
          <mxGeometry width="160" relative="1" as="geometry">
            <mxPoint x="876.7593200000003" y="615.0799999999999" as="sourcePoint" />
            <mxPoint x="1666.1999999999946" y="580" as="targetPoint" />
            <Array as="points">
              <mxPoint x="896.2" y="615" />
            </Array>
          </mxGeometry>
        </mxCell>
        <mxCell id="D2uAuJA1LaHFy1BpvuMR-108" value="&lt;font style=&quot;font-size: 20px;&quot;&gt;Login&lt;/font&gt;" style="ellipse;whiteSpace=wrap;html=1;fontSize=20;fontStyle=1;strokeWidth=2;" parent="EfS-6Uey1ptOtGm0Xwp3-2" vertex="1">
          <mxGeometry x="495.1599999999997" y="260" width="375" height="80" as="geometry" />
        </mxCell>
        <mxCell id="7EDJecUnycSH9LvbN0Oy-5" value="" style="endArrow=none;dashed=1;html=1;rounded=0;startArrow=open;startFill=0;jumpSize=12;startSize=12;fontSize=20;fontStyle=1;strokeWidth=2;exitX=0;exitY=0.5;exitDx=0;exitDy=0;" parent="EfS-6Uey1ptOtGm0Xwp3-2" source="7EDJecUnycSH9LvbN0Oy-2" target="D2uAuJA1LaHFy1BpvuMR-108" edge="1">
          <mxGeometry width="50" height="50" relative="1" as="geometry">
            <mxPoint x="1320.0919999999996" y="220" as="sourcePoint" />
            <mxPoint x="890" y="280" as="targetPoint" />
            <Array as="points" />
          </mxGeometry>
        </mxCell>
        <mxCell id="D2uAuJA1LaHFy1BpvuMR-245" value="" style="endArrow=none;dashed=1;html=1;rounded=0;entryX=0.008;entryY=0.643;entryDx=0;entryDy=0;entryPerimeter=0;startArrow=open;startFill=0;jumpSize=12;startSize=12;fontSize=20;fontStyle=1;strokeWidth=2;exitX=0.978;exitY=0.331;exitDx=0;exitDy=0;exitPerimeter=0;" parent="EfS-6Uey1ptOtGm0Xwp3-2" source="D2uAuJA1LaHFy1BpvuMR-9" target="D2uAuJA1LaHFy1BpvuMR-249" edge="1">
          <mxGeometry width="50" height="50" relative="1" as="geometry">
            <mxPoint x="780.0049999999992" y="539.9800000000005" as="sourcePoint" />
            <mxPoint x="1574.1299999999992" y="330.0200000000002" as="targetPoint" />
          </mxGeometry>
        </mxCell>
        <mxCell id="D2uAuJA1LaHFy1BpvuMR-39" value="" style="endArrow=none;endSize=6;dashed=1;html=1;rounded=0;fontSize=20;endFill=0;startArrow=open;startFill=0;startSize=12;fontStyle=1;strokeWidth=2;entryX=0.115;entryY=0.851;entryDx=0;entryDy=0;entryPerimeter=0;" parent="EfS-6Uey1ptOtGm0Xwp3-2" target="D2uAuJA1LaHFy1BpvuMR-36" edge="1">
          <mxGeometry width="160" relative="1" as="geometry">
            <mxPoint x="870" y="615.02" as="sourcePoint" />
            <mxPoint x="1671.2800000000007" y="490" as="targetPoint" />
          </mxGeometry>
        </mxCell>
        <mxCell id="D2uAuJA1LaHFy1BpvuMR-18" value="Request Loan" style="ellipse;whiteSpace=wrap;html=1;fontSize=20;fontStyle=1;strokeWidth=2;" parent="EfS-6Uey1ptOtGm0Xwp3-2" vertex="1">
          <mxGeometry x="480" y="1330" width="375" height="70" as="geometry" />
        </mxCell>
        <mxCell id="D2uAuJA1LaHFy1BpvuMR-232" value="&lt;font style=&quot;font-size: 20px;&quot;&gt;Mark CheckIN Time&lt;/font&gt;" style="ellipse;whiteSpace=wrap;html=1;fontSize=20;fontStyle=1;strokeWidth=2;" parent="EfS-6Uey1ptOtGm0Xwp3-2" vertex="1">
          <mxGeometry x="1489.9999999999982" y="870" width="214" height="80" as="geometry" />
        </mxCell>
        <mxCell id="D2uAuJA1LaHFy1BpvuMR-233" value="&lt;font style=&quot;font-size: 20px;&quot;&gt;Mark CheckOutTime&lt;/font&gt;" style="ellipse;whiteSpace=wrap;html=1;fontSize=20;fontStyle=1;strokeWidth=2;" parent="EfS-6Uey1ptOtGm0Xwp3-2" vertex="1">
          <mxGeometry x="1492.4999999999982" y="990" width="209" height="80" as="geometry" />
        </mxCell>
        <mxCell id="D2uAuJA1LaHFy1BpvuMR-10" value="Check leave Approval" style="ellipse;whiteSpace=wrap;html=1;fontSize=20;fontStyle=1;strokeWidth=2;" parent="EfS-6Uey1ptOtGm0Xwp3-2" vertex="1">
          <mxGeometry x="512.9400000000005" y="900" width="375" height="70" as="geometry" />
        </mxCell>
        <mxCell id="D2uAuJA1LaHFy1BpvuMR-238" value="&amp;lt;&amp;lt;include&amp;gt;&amp;gt;" style="text;html=1;align=center;verticalAlign=middle;resizable=0;points=[];autosize=1;strokeColor=none;fillColor=none;fontSize=20;fontStyle=1;strokeWidth=2;" parent="EfS-6Uey1ptOtGm0Xwp3-2" vertex="1">
          <mxGeometry x="1279.9999999999982" y="930" width="130" height="40" as="geometry" />
        </mxCell>
        <mxCell id="D2uAuJA1LaHFy1BpvuMR-237" value="&amp;lt;&amp;lt;include&amp;gt;&amp;gt;" style="text;html=1;align=center;verticalAlign=middle;resizable=0;points=[];autosize=1;strokeColor=none;fillColor=none;fontSize=20;fontStyle=1;strokeWidth=2;" parent="EfS-6Uey1ptOtGm0Xwp3-2" vertex="1">
          <mxGeometry x="1249.9999999999982" y="840" width="130" height="40" as="geometry" />
        </mxCell>
        <mxCell id="D2uAuJA1LaHFy1BpvuMR-100" value="Request staff&amp;nbsp; Loan" style="ellipse;whiteSpace=wrap;html=1;fontSize=20;fontStyle=1;strokeWidth=2;" parent="EfS-6Uey1ptOtGm0Xwp3-2" vertex="1">
          <mxGeometry x="1420.000000000001" y="1130" width="265" height="70" as="geometry" />
        </mxCell>
        <mxCell id="D2uAuJA1LaHFy1BpvuMR-112" value="" style="endArrow=none;dashed=1;html=1;dashPattern=1 3;strokeWidth=2;rounded=0;entryX=0;entryY=0.5;entryDx=0;entryDy=0;exitX=0.979;exitY=0.363;exitDx=0;exitDy=0;exitPerimeter=0;fontSize=20;startArrow=open;startFill=0;startSize=12;fontStyle=1" parent="EfS-6Uey1ptOtGm0Xwp3-2" source="D2uAuJA1LaHFy1BpvuMR-18" target="D2uAuJA1LaHFy1BpvuMR-100" edge="1">
          <mxGeometry width="50" height="50" relative="1" as="geometry">
            <mxPoint x="799.6349999999984" y="1132.4700000000003" as="sourcePoint" />
            <mxPoint x="1132.08" y="1025" as="targetPoint" />
          </mxGeometry>
        </mxCell>
        <mxCell id="D2uAuJA1LaHFy1BpvuMR-101" value="&lt;font style=&quot;font-size: 20px;&quot;&gt;Request Home Loan&lt;/font&gt;" style="ellipse;whiteSpace=wrap;html=1;fontSize=20;fontStyle=1;strokeWidth=2;" parent="EfS-6Uey1ptOtGm0Xwp3-2" vertex="1">
          <mxGeometry x="1431.880000000001" y="1230" width="263.5" height="80" as="geometry" />
        </mxCell>
        <mxCell id="D2uAuJA1LaHFy1BpvuMR-102" value="&lt;font style=&quot;font-size: 20px;&quot;&gt;Request Vehicle Loan&lt;/font&gt;" style="ellipse;whiteSpace=wrap;html=1;fontSize=20;fontStyle=1;strokeWidth=2;" parent="EfS-6Uey1ptOtGm0Xwp3-2" vertex="1">
          <mxGeometry x="1431.880000000001" y="1340" width="278" height="80" as="geometry" />
        </mxCell>
        <mxCell id="D2uAuJA1LaHFy1BpvuMR-115" value="" style="endArrow=none;dashed=1;html=1;dashPattern=1 3;strokeWidth=2;rounded=0;exitX=0.993;exitY=0.538;exitDx=0;exitDy=0;exitPerimeter=0;fontSize=20;startArrow=open;startFill=0;startSize=12;entryX=0;entryY=0.5;entryDx=0;entryDy=0;fontStyle=1" parent="EfS-6Uey1ptOtGm0Xwp3-2" source="D2uAuJA1LaHFy1BpvuMR-18" target="D2uAuJA1LaHFy1BpvuMR-102" edge="1">
          <mxGeometry width="50" height="50" relative="1" as="geometry">
            <mxPoint x="792.0799999999999" y="1160" as="sourcePoint" />
            <mxPoint x="1122.08" y="1410" as="targetPoint" />
          </mxGeometry>
        </mxCell>
        <mxCell id="D2uAuJA1LaHFy1BpvuMR-103" value="&lt;font style=&quot;font-size: 20px;&quot;&gt;Request&amp;nbsp;Educational&lt;br style=&quot;font-size: 20px;&quot;&gt;&amp;nbsp;Loan&lt;/font&gt;" style="ellipse;whiteSpace=wrap;html=1;fontSize=20;fontStyle=1;strokeWidth=2;" parent="EfS-6Uey1ptOtGm0Xwp3-2" vertex="1">
          <mxGeometry x="1450.000000000001" y="1520" width="278" height="80" as="geometry" />
        </mxCell>
        <mxCell id="D2uAuJA1LaHFy1BpvuMR-113" value="" style="endArrow=none;dashed=1;html=1;dashPattern=1 3;strokeWidth=2;rounded=0;entryX=0;entryY=0.5;entryDx=0;entryDy=0;exitX=0.989;exitY=0.591;exitDx=0;exitDy=0;fontSize=20;startArrow=open;startFill=0;startSize=12;exitPerimeter=0;fontStyle=1" parent="EfS-6Uey1ptOtGm0Xwp3-2" source="D2uAuJA1LaHFy1BpvuMR-18" target="D2uAuJA1LaHFy1BpvuMR-103" edge="1">
          <mxGeometry width="50" height="50" relative="1" as="geometry">
            <mxPoint x="803.0799999999999" y="1145" as="sourcePoint" />
            <mxPoint x="1142.08" y="1035" as="targetPoint" />
          </mxGeometry>
        </mxCell>
        <mxCell id="D2uAuJA1LaHFy1BpvuMR-313" value="&lt;span style=&quot;font-size: 20px;&quot;&gt;View Leave Report&amp;nbsp;&lt;/span&gt;" style="ellipse;whiteSpace=wrap;html=1;fontSize=20;fontStyle=1;strokeWidth=2;" parent="EfS-6Uey1ptOtGm0Xwp3-2" vertex="1">
          <mxGeometry x="1292.67" y="4230" width="239.66" height="70" as="geometry" />
        </mxCell>
        <mxCell id="D2uAuJA1LaHFy1BpvuMR-314" value="&lt;span style=&quot;font-size: 20px;&quot;&gt;View Attendance Report&lt;/span&gt;" style="ellipse;whiteSpace=wrap;html=1;fontSize=20;fontStyle=1;strokeWidth=2;" parent="EfS-6Uey1ptOtGm0Xwp3-2" vertex="1">
          <mxGeometry x="1288.099999999998" y="4390" width="258.17" height="70" as="geometry" />
        </mxCell>
        <mxCell id="D2uAuJA1LaHFy1BpvuMR-316" value="&lt;font style=&quot;font-size: 20px;&quot;&gt;&amp;lt;&amp;lt;include&amp;gt;&amp;gt;&lt;/font&gt;" style="text;html=1;align=center;verticalAlign=middle;resizable=0;points=[];autosize=1;strokeColor=none;fillColor=none;fontSize=20;fontStyle=1;strokeWidth=2;" parent="EfS-6Uey1ptOtGm0Xwp3-2" vertex="1">
          <mxGeometry x="1060.0000000000016" y="4245" width="130" height="40" as="geometry" />
        </mxCell>
        <mxCell id="D2uAuJA1LaHFy1BpvuMR-318" value="&lt;font style=&quot;font-size: 20px;&quot;&gt;&amp;lt;&amp;lt;include&amp;gt;&amp;gt;&lt;/font&gt;" style="text;html=1;align=center;verticalAlign=middle;resizable=0;points=[];autosize=1;strokeColor=none;fillColor=none;fontSize=20;fontStyle=1;strokeWidth=2;" parent="EfS-6Uey1ptOtGm0Xwp3-2" vertex="1">
          <mxGeometry x="1077.0000000000018" y="4360" width="130" height="40" as="geometry" />
        </mxCell>
        <mxCell id="D2uAuJA1LaHFy1BpvuMR-189" value="&lt;font style=&quot;font-size: 20px;&quot;&gt;&amp;lt;&amp;lt;extend&amp;gt;&amp;gt;&lt;/font&gt;" style="text;html=1;align=center;verticalAlign=middle;resizable=0;points=[];autosize=1;strokeColor=none;fillColor=none;fontSize=20;fontStyle=1;strokeWidth=2;" parent="EfS-6Uey1ptOtGm0Xwp3-2" vertex="1">
          <mxGeometry x="947.0000000000013" y="2893.8000000000006" width="130" height="40" as="geometry" />
        </mxCell>
        <mxCell id="D2uAuJA1LaHFy1BpvuMR-139" value="&amp;lt;&amp;lt;extend&amp;gt;&amp;gt;" style="text;html=1;align=center;verticalAlign=middle;resizable=0;points=[];autosize=1;strokeColor=none;fillColor=none;fontSize=20;fontStyle=1;strokeWidth=2;" parent="EfS-6Uey1ptOtGm0Xwp3-2" vertex="1">
          <mxGeometry x="1010.0000000000018" y="2560" width="130" height="40" as="geometry" />
        </mxCell>
        <mxCell id="D2uAuJA1LaHFy1BpvuMR-138" value="&amp;lt;&amp;lt;extend&amp;gt;&amp;gt;" style="text;html=1;align=center;verticalAlign=middle;resizable=0;points=[];autosize=1;strokeColor=none;fillColor=none;fontSize=20;fontStyle=1;strokeWidth=2;" parent="EfS-6Uey1ptOtGm0Xwp3-2" vertex="1">
          <mxGeometry x="997.5000000000018" y="2480" width="130" height="40" as="geometry" />
        </mxCell>
        <mxCell id="D2uAuJA1LaHFy1BpvuMR-137" value="&amp;lt;&amp;lt;extend&amp;gt;&amp;gt;" style="text;html=1;align=center;verticalAlign=middle;resizable=0;points=[];autosize=1;strokeColor=none;fillColor=none;fontSize=20;fontStyle=1;strokeWidth=2;" parent="EfS-6Uey1ptOtGm0Xwp3-2" vertex="1">
          <mxGeometry x="1010" y="2430" width="130" height="40" as="geometry" />
        </mxCell>
        <mxCell id="D2uAuJA1LaHFy1BpvuMR-136" value="&amp;lt;&amp;lt;extend&amp;gt;&amp;gt;" style="text;html=1;align=center;verticalAlign=middle;resizable=0;points=[];autosize=1;strokeColor=none;fillColor=none;fontSize=20;fontStyle=1;strokeWidth=2;" parent="EfS-6Uey1ptOtGm0Xwp3-2" vertex="1">
          <mxGeometry x="997.5" y="2373" width="130" height="40" as="geometry" />
        </mxCell>
        <mxCell id="D2uAuJA1LaHFy1BpvuMR-140" value="&amp;lt;&amp;lt;extend&amp;gt;&amp;gt;" style="text;html=1;align=center;verticalAlign=middle;resizable=0;points=[];autosize=1;strokeColor=none;fillColor=none;fontSize=20;fontStyle=1;strokeWidth=2;" parent="EfS-6Uey1ptOtGm0Xwp3-2" vertex="1">
          <mxGeometry x="978.6000000000004" y="2320" width="130" height="40" as="geometry" />
        </mxCell>
        <mxCell id="D2uAuJA1LaHFy1BpvuMR-135" value="&amp;lt;&amp;lt;extend&amp;gt;&amp;gt;" style="text;html=1;align=center;verticalAlign=middle;resizable=0;points=[];autosize=1;strokeColor=none;fillColor=none;fontSize=20;fontStyle=1;strokeWidth=2;" parent="EfS-6Uey1ptOtGm0Xwp3-2" vertex="1">
          <mxGeometry x="920.0000000000018" y="2270" width="130" height="40" as="geometry" />
        </mxCell>
        <mxCell id="D2uAuJA1LaHFy1BpvuMR-107" value="&lt;font style=&quot;font-size: 20px;&quot;&gt;Logout&lt;/font&gt;" style="ellipse;whiteSpace=wrap;html=1;fontSize=20;fontStyle=1;strokeWidth=2;" parent="EfS-6Uey1ptOtGm0Xwp3-2" vertex="1">
          <mxGeometry x="483.429999999998" y="2190" width="375" height="80" as="geometry" />
        </mxCell>
        <mxCell id="7kRDTScoJdhUVzWF_K4i-6" value="Apply EPF/ETF" style="ellipse;whiteSpace=wrap;html=1;fontSize=20;fontStyle=1;strokeWidth=2;" parent="EfS-6Uey1ptOtGm0Xwp3-2" vertex="1">
          <mxGeometry x="495.15999999999985" y="2050" width="375" height="70" as="geometry" />
        </mxCell>
        <mxCell id="D2uAuJA1LaHFy1BpvuMR-11" value="Update Profile" style="ellipse;whiteSpace=wrap;html=1;fontSize=20;fontStyle=1;strokeWidth=2;" parent="EfS-6Uey1ptOtGm0Xwp3-2" vertex="1">
          <mxGeometry x="482.5500000000011" y="1900" width="375" height="70" as="geometry" />
        </mxCell>
        <mxCell id="D2uAuJA1LaHFy1BpvuMR-320" value="View Salary/OT/Increment&lt;div&gt;/Bonus/NoPay&lt;/div&gt;" style="ellipse;whiteSpace=wrap;html=1;fontSize=20;fontStyle=1;strokeWidth=2;" parent="EfS-6Uey1ptOtGm0Xwp3-2" vertex="1">
          <mxGeometry x="1237.5700000000015" y="1970" width="324.31" height="70" as="geometry" />
        </mxCell>
        <mxCell id="D2uAuJA1LaHFy1BpvuMR-321" value="View Task/Meeting&lt;div&gt;/EPF&amp;amp;ETF/Promotion&lt;/div&gt;" style="ellipse;whiteSpace=wrap;html=1;fontSize=20;fontStyle=1;strokeWidth=2;" parent="EfS-6Uey1ptOtGm0Xwp3-2" vertex="1">
          <mxGeometry x="1261.3900000000003" y="1840" width="311.59" height="70" as="geometry" />
        </mxCell>
        <mxCell id="D2uAuJA1LaHFy1BpvuMR-319" value="View Personal Details" style="ellipse;whiteSpace=wrap;html=1;fontSize=20;fontStyle=1;strokeWidth=2;" parent="EfS-6Uey1ptOtGm0Xwp3-2" vertex="1">
          <mxGeometry x="1280.000000000003" y="1720" width="265" height="70" as="geometry" />
        </mxCell>
        <mxCell id="D2uAuJA1LaHFy1BpvuMR-327" value="&lt;font style=&quot;font-size: 20px;&quot;&gt;&amp;lt;&amp;lt;extend&amp;gt;&amp;gt;&lt;/font&gt;" style="text;html=1;align=center;verticalAlign=middle;resizable=0;points=[];autosize=1;strokeColor=none;fillColor=none;fontSize=20;fontStyle=1;strokeWidth=2;" parent="EfS-6Uey1ptOtGm0Xwp3-2" vertex="1">
          <mxGeometry x="958.0200000000027" y="1860" width="130" height="40" as="geometry" />
        </mxCell>
        <mxCell id="D2uAuJA1LaHFy1BpvuMR-325" value="&lt;font style=&quot;font-size: 20px;&quot;&gt;&amp;lt;&amp;lt;extend&amp;gt;&amp;gt;&lt;/font&gt;" style="text;html=1;align=center;verticalAlign=middle;resizable=0;points=[];autosize=1;strokeColor=none;fillColor=none;fontSize=20;fontStyle=1;strokeWidth=2;" parent="EfS-6Uey1ptOtGm0Xwp3-2" vertex="1">
          <mxGeometry x="1036.0000000000027" y="1770" width="130" height="40" as="geometry" />
        </mxCell>
        <mxCell id="D2uAuJA1LaHFy1BpvuMR-323" value="&lt;font style=&quot;font-size: 20px;&quot;&gt;&amp;lt;&amp;lt;extend&amp;gt;&amp;gt;&lt;/font&gt;" style="text;html=1;align=center;verticalAlign=middle;resizable=0;points=[];autosize=1;strokeColor=none;fillColor=none;fontSize=20;fontStyle=1;strokeWidth=2;" parent="EfS-6Uey1ptOtGm0Xwp3-2" vertex="1">
          <mxGeometry x="970.0000000000018" y="1695" width="130" height="40" as="geometry" />
        </mxCell>
        <mxCell id="D2uAuJA1LaHFy1BpvuMR-12" value="Reset Password" style="ellipse;whiteSpace=wrap;html=1;fontSize=20;fontStyle=1;strokeWidth=2;" parent="EfS-6Uey1ptOtGm0Xwp3-2" vertex="1">
          <mxGeometry x="495.15999999999985" y="1560" width="375" height="70" as="geometry" />
        </mxCell>
        <mxCell id="D2uAuJA1LaHFy1BpvuMR-105" value="&lt;font style=&quot;font-size: 20px;&quot;&gt;Request Products&lt;br style=&quot;font-size: 20px;&quot;&gt;&amp;nbsp;Loan&lt;/font&gt;" style="ellipse;whiteSpace=wrap;html=1;fontSize=20;fontStyle=1;strokeWidth=2;" parent="EfS-6Uey1ptOtGm0Xwp3-2" vertex="1">
          <mxGeometry x="1458.000000000001" y="1615" width="278" height="80" as="geometry" />
        </mxCell>
        <mxCell id="D2uAuJA1LaHFy1BpvuMR-116" value="" style="endArrow=none;dashed=1;html=1;dashPattern=1 3;strokeWidth=2;rounded=0;entryX=0;entryY=0.5;entryDx=0;entryDy=0;exitX=0.944;exitY=0.719;exitDx=0;exitDy=0;exitPerimeter=0;fontSize=20;startArrow=open;startFill=0;startSize=12;fontStyle=1" parent="EfS-6Uey1ptOtGm0Xwp3-2" source="D2uAuJA1LaHFy1BpvuMR-18" target="D2uAuJA1LaHFy1BpvuMR-105" edge="1">
          <mxGeometry width="50" height="50" relative="1" as="geometry">
            <mxPoint x="817.9749999999985" y="1145.0200000000004" as="sourcePoint" />
            <mxPoint x="1202.08" y="1045" as="targetPoint" />
          </mxGeometry>
        </mxCell>
        <mxCell id="D2uAuJA1LaHFy1BpvuMR-104" value="&lt;font style=&quot;font-size: 20px;&quot;&gt;Request&amp;nbsp;Emergency&lt;br style=&quot;font-size: 20px;&quot;&gt;&amp;nbsp;Loan&lt;/font&gt;" style="ellipse;whiteSpace=wrap;html=1;fontSize=20;fontStyle=1;strokeWidth=2;" parent="EfS-6Uey1ptOtGm0Xwp3-2" vertex="1">
          <mxGeometry x="1431.880000000001" y="1430" width="278" height="80" as="geometry" />
        </mxCell>
        <mxCell id="D2uAuJA1LaHFy1BpvuMR-114" value="" style="endArrow=none;dashed=1;html=1;dashPattern=1 3;strokeWidth=2;rounded=0;entryX=0;entryY=0.5;entryDx=0;entryDy=0;exitX=0.97;exitY=0.648;exitDx=0;exitDy=0;exitPerimeter=0;fontSize=20;startArrow=open;startFill=0;startSize=12;fontStyle=1" parent="EfS-6Uey1ptOtGm0Xwp3-2" source="D2uAuJA1LaHFy1BpvuMR-18" target="D2uAuJA1LaHFy1BpvuMR-104" edge="1">
          <mxGeometry width="50" height="50" relative="1" as="geometry">
            <mxPoint x="833.3450000000012" y="1135.08" as="sourcePoint" />
            <mxPoint x="1182.08" y="1025" as="targetPoint" />
          </mxGeometry>
        </mxCell>
        <mxCell id="D2uAuJA1LaHFy1BpvuMR-122" value="&lt;font style=&quot;font-size: 20px;&quot;&gt;&amp;lt;&amp;lt;extend&amp;gt;&amp;gt;&lt;/font&gt;" style="text;html=1;align=center;verticalAlign=middle;resizable=0;points=[];autosize=1;strokeColor=none;fillColor=none;fontSize=20;fontStyle=1;strokeWidth=2;" parent="EfS-6Uey1ptOtGm0Xwp3-2" vertex="1">
          <mxGeometry x="1025.6900000000014" y="1470" width="130" height="40" as="geometry" />
        </mxCell>
        <mxCell id="D2uAuJA1LaHFy1BpvuMR-121" value="&lt;font style=&quot;font-size: 20px;&quot;&gt;&amp;lt;&amp;lt;extend&amp;gt;&amp;gt;&lt;/font&gt;" style="text;html=1;align=center;verticalAlign=middle;resizable=0;points=[];autosize=1;strokeColor=none;fillColor=none;fontSize=20;fontStyle=1;strokeWidth=2;" parent="EfS-6Uey1ptOtGm0Xwp3-2" vertex="1">
          <mxGeometry x="1200.000000000001" y="1450" width="130" height="40" as="geometry" />
        </mxCell>
        <mxCell id="D2uAuJA1LaHFy1BpvuMR-120" value="&lt;font style=&quot;font-size: 20px;&quot;&gt;&amp;lt;&amp;lt;extend&amp;gt;&amp;gt;&lt;/font&gt;" style="text;html=1;align=center;verticalAlign=middle;resizable=0;points=[];autosize=1;strokeColor=none;fillColor=none;fontSize=20;fontStyle=1;strokeWidth=2;" parent="EfS-6Uey1ptOtGm0Xwp3-2" vertex="1">
          <mxGeometry x="1140.000000000001" y="1400" width="130" height="40" as="geometry" />
        </mxCell>
        <mxCell id="D2uAuJA1LaHFy1BpvuMR-119" value="&lt;font style=&quot;font-size: 20px;&quot;&gt;&amp;lt;&amp;lt;extend&amp;gt;&amp;gt;&lt;/font&gt;" style="text;html=1;align=center;verticalAlign=middle;resizable=0;points=[];autosize=1;strokeColor=none;fillColor=none;fontSize=20;fontStyle=1;strokeWidth=2;" parent="EfS-6Uey1ptOtGm0Xwp3-2" vertex="1">
          <mxGeometry x="1147.8900000000003" y="1320" width="130" height="40" as="geometry" />
        </mxCell>
        <mxCell id="D2uAuJA1LaHFy1BpvuMR-118" value="&lt;font style=&quot;font-size: 20px;&quot;&gt;&amp;lt;&amp;lt;extend&amp;gt;&amp;gt;&lt;/font&gt;" style="text;html=1;align=center;verticalAlign=middle;resizable=0;points=[];autosize=1;strokeColor=none;fillColor=none;fontSize=20;fontStyle=1;strokeWidth=2;" parent="EfS-6Uey1ptOtGm0Xwp3-2" vertex="1">
          <mxGeometry x="1147.8900000000003" y="1260" width="130" height="40" as="geometry" />
        </mxCell>
        <mxCell id="D2uAuJA1LaHFy1BpvuMR-117" value="&lt;font style=&quot;font-size: 20px;&quot;&gt;&amp;lt;&amp;lt;extend&amp;gt;&amp;gt;&lt;/font&gt;" style="text;html=1;align=center;verticalAlign=middle;resizable=0;points=[];autosize=1;strokeColor=none;fillColor=none;fontSize=20;fontStyle=1;strokeWidth=2;" parent="EfS-6Uey1ptOtGm0Xwp3-2" vertex="1">
          <mxGeometry x="1060.000000000001" y="1200" width="130" height="40" as="geometry" />
        </mxCell>
        <mxCell id="D2uAuJA1LaHFy1BpvuMR-240" value="&lt;font style=&quot;font-size: 20px;&quot;&gt;View Employee KPI Report&lt;/font&gt;" style="ellipse;whiteSpace=wrap;html=1;fontSize=20;fontStyle=1;strokeWidth=2;" parent="EfS-6Uey1ptOtGm0Xwp3-2" vertex="1">
          <mxGeometry x="1720" y="9030" width="331.75" height="60" as="geometry" />
        </mxCell>
        <mxCell id="D2uAuJA1LaHFy1BpvuMR-252" value="&amp;lt;&amp;lt;include&amp;gt;&amp;gt;" style="text;html=1;align=center;verticalAlign=middle;resizable=0;points=[];autosize=1;strokeColor=none;fillColor=none;fontSize=20;fontStyle=1;strokeWidth=2;" parent="EfS-6Uey1ptOtGm0Xwp3-2" vertex="1">
          <mxGeometry x="1555" y="8970" width="130" height="40" as="geometry" />
        </mxCell>
        <mxCell id="D2uAuJA1LaHFy1BpvuMR-242" value="&amp;lt;&amp;lt;include&amp;gt;&amp;gt;" style="text;html=1;align=center;verticalAlign=middle;resizable=0;points=[];autosize=1;strokeColor=none;fillColor=none;fontSize=20;fontStyle=1;strokeWidth=2;" parent="EfS-6Uey1ptOtGm0Xwp3-2" vertex="1">
          <mxGeometry x="1520" y="9060" width="130" height="40" as="geometry" />
        </mxCell>
        <mxCell id="4xuC2qx4Eaz3mKJdn3-A-1" value="" style="endArrow=none;dashed=1;html=1;rounded=0;exitX=1;exitY=0.5;exitDx=0;exitDy=0;startArrow=open;startFill=0;startSize=12;entryX=0;entryY=0.5;entryDx=0;entryDy=0;fontSize=20;fontStyle=1;strokeWidth=2;" parent="EfS-6Uey1ptOtGm0Xwp3-2" source="D2uAuJA1LaHFy1BpvuMR-23" target="D2uAuJA1LaHFy1BpvuMR-33" edge="1">
          <mxGeometry width="50" height="50" relative="1" as="geometry">
            <mxPoint x="867.5" y="3044" as="sourcePoint" />
            <mxPoint x="1127.5" y="3130" as="targetPoint" />
          </mxGeometry>
        </mxCell>
        <mxCell id="4xuC2qx4Eaz3mKJdn3-A-2" value="" style="endArrow=none;dashed=1;html=1;rounded=0;startArrow=open;startFill=0;startSize=12;entryX=0;entryY=0.5;entryDx=0;entryDy=0;fontSize=20;fontStyle=1;strokeWidth=2;" parent="EfS-6Uey1ptOtGm0Xwp3-2" source="D2uAuJA1LaHFy1BpvuMR-23" target="D2uAuJA1LaHFy1BpvuMR-31" edge="1">
          <mxGeometry width="50" height="50" relative="1" as="geometry">
            <mxPoint x="930" y="2921.8" as="sourcePoint" />
            <mxPoint x="1123" y="2933.8" as="targetPoint" />
          </mxGeometry>
        </mxCell>
        <mxCell id="4xuC2qx4Eaz3mKJdn3-A-3" value="" style="endArrow=none;dashed=1;html=1;rounded=0;startArrow=open;startFill=0;startSize=12;fontSize=20;fontStyle=1;strokeWidth=2;exitX=0.664;exitY=0.029;exitDx=0;exitDy=0;exitPerimeter=0;" parent="EfS-6Uey1ptOtGm0Xwp3-2" source="D2uAuJA1LaHFy1BpvuMR-23" edge="1">
          <mxGeometry width="50" height="50" relative="1" as="geometry">
            <mxPoint x="869.6900000000005" y="2912.19" as="sourcePoint" />
            <mxPoint x="1126" y="2840" as="targetPoint" />
          </mxGeometry>
        </mxCell>
        <mxCell id="D2uAuJA1LaHFy1BpvuMR-203" value="&lt;font style=&quot;font-size: 20px;&quot;&gt;&amp;lt;&amp;lt;extend&amp;gt;&amp;gt;&lt;/font&gt;" style="text;html=1;align=center;verticalAlign=middle;resizable=0;points=[];autosize=1;strokeColor=none;fillColor=none;fontSize=20;fontStyle=1;strokeWidth=2;" parent="EfS-6Uey1ptOtGm0Xwp3-2" vertex="1">
          <mxGeometry x="906" y="5723.5" width="130" height="40" as="geometry" />
        </mxCell>
        <mxCell id="D2uAuJA1LaHFy1BpvuMR-21" value="Check Employee Performance" style="ellipse;whiteSpace=wrap;html=1;fontSize=20;fontStyle=1;strokeWidth=2;" parent="EfS-6Uey1ptOtGm0Xwp3-2" vertex="1">
          <mxGeometry x="1166.5" y="8960" width="357" height="75" as="geometry" />
        </mxCell>
        <mxCell id="D2uAuJA1LaHFy1BpvuMR-241" value="" style="endArrow=open;dashed=1;html=1;rounded=0;exitX=1;exitY=0.5;exitDx=0;exitDy=0;endFill=0;endSize=11;fontSize=20;fontStyle=1;strokeWidth=2;entryX=0.05;entryY=0.23;entryDx=0;entryDy=0;entryPerimeter=0;" parent="EfS-6Uey1ptOtGm0Xwp3-2" source="D2uAuJA1LaHFy1BpvuMR-21" target="D2uAuJA1LaHFy1BpvuMR-240" edge="1">
          <mxGeometry width="50" height="50" relative="1" as="geometry">
            <mxPoint x="842.7299999999996" y="8881" as="sourcePoint" />
            <mxPoint x="892.7299999999996" y="8831" as="targetPoint" />
          </mxGeometry>
        </mxCell>
        <mxCell id="D2uAuJA1LaHFy1BpvuMR-20" value="Arrange Meeting" style="ellipse;whiteSpace=wrap;html=1;fontSize=20;fontStyle=1;strokeWidth=2;" parent="EfS-6Uey1ptOtGm0Xwp3-2" vertex="1">
          <mxGeometry x="1151" y="8720" width="357" height="75" as="geometry" />
        </mxCell>
        <mxCell id="D2uAuJA1LaHFy1BpvuMR-239" value="&lt;span style=&quot;font-size: 20px;&quot;&gt;Approve promotion&lt;/span&gt;" style="ellipse;whiteSpace=wrap;html=1;fontSize=20;fontStyle=1;strokeWidth=2;" parent="EfS-6Uey1ptOtGm0Xwp3-2" vertex="1">
          <mxGeometry x="1175" y="9080" width="333" height="60" as="geometry" />
        </mxCell>
        <mxCell id="D2uAuJA1LaHFy1BpvuMR-251" value="" style="endArrow=open;dashed=1;html=1;rounded=0;entryX=0;entryY=1;entryDx=0;entryDy=0;endFill=0;endSize=12;exitX=1;exitY=0.5;exitDx=0;exitDy=0;fontSize=20;fontStyle=1;strokeWidth=2;" parent="EfS-6Uey1ptOtGm0Xwp3-2" source="D2uAuJA1LaHFy1BpvuMR-239" target="D2uAuJA1LaHFy1BpvuMR-240" edge="1">
          <mxGeometry width="50" height="50" relative="1" as="geometry">
            <mxPoint x="1319.9189999999999" y="9061.84" as="sourcePoint" />
            <mxPoint x="832.7299999999996" y="8931" as="targetPoint" />
          </mxGeometry>
        </mxCell>
        <mxCell id="4xuC2qx4Eaz3mKJdn3-A-4" value="Check Employee Feedback" style="ellipse;whiteSpace=wrap;html=1;fontSize=20;fontStyle=1;strokeWidth=2;" parent="EfS-6Uey1ptOtGm0Xwp3-2" vertex="1">
          <mxGeometry x="1155.69" y="8850" width="357" height="75" as="geometry" />
        </mxCell>
        <mxCell id="D2uAuJA1LaHFy1BpvuMR-145" value="&lt;font style=&quot;font-size: 20px;&quot;&gt;Generate KPI&lt;/font&gt;" style="ellipse;whiteSpace=wrap;html=1;fontSize=20;fontStyle=1;strokeWidth=2;" parent="EfS-6Uey1ptOtGm0Xwp3-2" vertex="1">
          <mxGeometry x="625" y="4330" width="381" height="70" as="geometry" />
        </mxCell>
        <mxCell id="D2uAuJA1LaHFy1BpvuMR-317" value="" style="endArrow=none;dashed=1;html=1;rounded=0;startArrow=open;startFill=0;startSize=12;entryX=1;entryY=1;entryDx=0;entryDy=0;fontSize=20;fontStyle=1;strokeWidth=2;" parent="EfS-6Uey1ptOtGm0Xwp3-2" source="D2uAuJA1LaHFy1BpvuMR-314" target="D2uAuJA1LaHFy1BpvuMR-145" edge="1">
          <mxGeometry width="50" height="50" relative="1" as="geometry">
            <mxPoint x="10.0049999999992" y="4468.73" as="sourcePoint" />
            <mxPoint x="562.1380000000008" y="4396" as="targetPoint" />
          </mxGeometry>
        </mxCell>
        <mxCell id="D2uAuJA1LaHFy1BpvuMR-315" value="" style="endArrow=none;dashed=1;html=1;rounded=0;startArrow=open;startFill=0;startSize=12;entryX=0.931;entryY=0.21;entryDx=0;entryDy=0;fontSize=20;fontStyle=1;strokeWidth=2;exitX=0;exitY=0;exitDx=0;exitDy=0;entryPerimeter=0;" parent="EfS-6Uey1ptOtGm0Xwp3-2" source="D2uAuJA1LaHFy1BpvuMR-313" target="D2uAuJA1LaHFy1BpvuMR-145" edge="1">
          <mxGeometry width="50" height="50" relative="1" as="geometry">
            <mxPoint x="350" y="4386" as="sourcePoint" />
            <mxPoint x="542.6370000000006" y="4380.26" as="targetPoint" />
          </mxGeometry>
        </mxCell>
        <mxCell id="4xuC2qx4Eaz3mKJdn3-A-6" value="Recommend &lt;span style=&quot;background-color: transparent; color: light-dark(rgb(0, 0, 0), rgb(255, 255, 255));&quot;&gt;Promotion&lt;/span&gt;" style="ellipse;whiteSpace=wrap;html=1;fontSize=20;fontStyle=1;strokeWidth=2;" parent="EfS-6Uey1ptOtGm0Xwp3-2" vertex="1">
          <mxGeometry x="618.289999999999" y="4120" width="370" height="70" as="geometry" />
        </mxCell>
        <mxCell id="4xuC2qx4Eaz3mKJdn3-A-7" value="" style="endArrow=none;html=1;rounded=0;entryX=0;entryY=0.5;entryDx=0;entryDy=0;fontSize=20;fontStyle=1;strokeWidth=2;" parent="EfS-6Uey1ptOtGm0Xwp3-2" target="4xuC2qx4Eaz3mKJdn3-A-6" edge="1">
          <mxGeometry width="50" height="50" relative="1" as="geometry">
            <mxPoint x="-210" y="3950" as="sourcePoint" />
            <mxPoint x="600.7299999999996" y="4120" as="targetPoint" />
          </mxGeometry>
        </mxCell>
        <mxCell id="4xuC2qx4Eaz3mKJdn3-A-10" value="Give Feedback" style="ellipse;whiteSpace=wrap;html=1;fontSize=20;fontStyle=1;strokeWidth=2;" parent="EfS-6Uey1ptOtGm0Xwp3-2" vertex="1">
          <mxGeometry x="495.15999999999985" y="1060" width="375" height="70" as="geometry" />
        </mxCell>
        <mxCell id="4xuC2qx4Eaz3mKJdn3-A-12" value="Request Training" style="ellipse;whiteSpace=wrap;html=1;fontSize=20;fontStyle=1;strokeWidth=2;" parent="EfS-6Uey1ptOtGm0Xwp3-2" vertex="1">
          <mxGeometry x="495.15999999999985" y="1200" width="375" height="70" as="geometry" />
        </mxCell>
        <mxCell id="D2uAuJA1LaHFy1BpvuMR-228" value="&lt;font style=&quot;font-size: 20px;&quot;&gt;Mark Attendance&lt;/font&gt;" style="ellipse;whiteSpace=wrap;html=1;fontSize=20;fontStyle=1;strokeWidth=2;" parent="EfS-6Uey1ptOtGm0Xwp3-2" vertex="1">
          <mxGeometry x="498.15999999999804" y="725" width="369" height="80" as="geometry" />
        </mxCell>
        <mxCell id="D2uAuJA1LaHFy1BpvuMR-231" value="" style="endArrow=open;html=1;rounded=0;entryX=0;entryY=0.5;entryDx=0;entryDy=0;exitX=0.983;exitY=0.368;exitDx=0;exitDy=0;exitPerimeter=0;endFill=0;startArrow=none;startFill=0;endSize=12;startSize=6;dashed=1;fontSize=20;fontStyle=1;strokeWidth=2;" parent="EfS-6Uey1ptOtGm0Xwp3-2" source="D2uAuJA1LaHFy1BpvuMR-228" target="D2uAuJA1LaHFy1BpvuMR-232" edge="1">
          <mxGeometry width="50" height="50" relative="1" as="geometry">
            <mxPoint x="814.7699999999986" y="710" as="sourcePoint" />
            <mxPoint x="864.7699999999986" y="660" as="targetPoint" />
          </mxGeometry>
        </mxCell>
        <mxCell id="D2uAuJA1LaHFy1BpvuMR-234" value="" style="endArrow=open;html=1;rounded=0;exitX=0.992;exitY=0.572;exitDx=0;exitDy=0;exitPerimeter=0;startArrow=none;startFill=0;startSize=6;dashed=1;endFill=0;endSize=12;entryX=0;entryY=0.5;entryDx=0;entryDy=0;fontSize=20;fontStyle=1;strokeWidth=2;" parent="EfS-6Uey1ptOtGm0Xwp3-2" source="D2uAuJA1LaHFy1BpvuMR-228" target="D2uAuJA1LaHFy1BpvuMR-233" edge="1">
          <mxGeometry width="50" height="50" relative="1" as="geometry">
            <mxPoint x="964.7699999999986" y="790" as="sourcePoint" />
            <mxPoint x="1014.7699999999986" y="740" as="targetPoint" />
          </mxGeometry>
        </mxCell>
        <mxCell id="4xuC2qx4Eaz3mKJdn3-A-16" value="View Promotion Status" style="ellipse;whiteSpace=wrap;html=1;fontSize=20;fontStyle=1;strokeWidth=2;" parent="EfS-6Uey1ptOtGm0Xwp3-2" vertex="1">
          <mxGeometry x="495.15999999999985" y="1450" width="375" height="70" as="geometry" />
        </mxCell>
        <mxCell id="D2uAuJA1LaHFy1BpvuMR-15" value="Approve leave" style="ellipse;whiteSpace=wrap;html=1;fontSize=20;fontStyle=1;strokeWidth=2;" parent="EfS-6Uey1ptOtGm0Xwp3-2" vertex="1">
          <mxGeometry x="997.4999999999982" y="5280" width="375" height="75" as="geometry" />
        </mxCell>
        <mxCell id="D2uAuJA1LaHFy1BpvuMR-106" value="&lt;font style=&quot;font-size: 20px;&quot;&gt;Cancel Leave&lt;/font&gt;" style="ellipse;whiteSpace=wrap;html=1;fontSize=20;fontStyle=1;strokeWidth=2;" parent="EfS-6Uey1ptOtGm0Xwp3-2" vertex="1">
          <mxGeometry x="1006.9999999999991" y="5410" width="375" height="75" as="geometry" />
        </mxCell>
        <mxCell id="4xuC2qx4Eaz3mKJdn3-A-19" value="&lt;font style=&quot;font-size: 20px;&quot;&gt;&amp;lt;&amp;lt;extend&amp;gt;&amp;gt;&lt;/font&gt;" style="text;html=1;align=center;verticalAlign=middle;resizable=0;points=[];autosize=1;strokeColor=none;fillColor=none;fontSize=20;fontStyle=1;strokeWidth=2;" parent="EfS-6Uey1ptOtGm0Xwp3-2" vertex="1">
          <mxGeometry x="875.999999999997" y="5230" width="130" height="40" as="geometry" />
        </mxCell>
        <mxCell id="4xuC2qx4Eaz3mKJdn3-A-20" value="&lt;font style=&quot;font-size: 20px;&quot;&gt;&amp;lt;&amp;lt;extend&amp;gt;&amp;gt;&lt;/font&gt;" style="text;html=1;align=center;verticalAlign=middle;resizable=0;points=[];autosize=1;strokeColor=none;fillColor=none;fontSize=20;fontStyle=1;strokeWidth=2;" parent="EfS-6Uey1ptOtGm0Xwp3-2" vertex="1">
          <mxGeometry x="909.9999999999962" y="5340" width="130" height="40" as="geometry" />
        </mxCell>
        <mxCell id="D2uAuJA1LaHFy1BpvuMR-191" value="&lt;font style=&quot;font-size: 20px;&quot;&gt;&amp;lt;&amp;lt;include&amp;gt;&amp;gt;&lt;/font&gt;" style="text;html=1;align=center;verticalAlign=middle;resizable=0;points=[];autosize=1;strokeColor=none;fillColor=none;fontSize=20;fontStyle=1;strokeWidth=2;" parent="EfS-6Uey1ptOtGm0Xwp3-2" vertex="1">
          <mxGeometry x="848.6000000000004" y="5100" width="130" height="40" as="geometry" />
        </mxCell>
        <mxCell id="4xuC2qx4Eaz3mKJdn3-A-22" value="Delete Employee" style="ellipse;whiteSpace=wrap;html=1;fontSize=20;fontStyle=1;strokeWidth=2;" parent="EfS-6Uey1ptOtGm0Xwp3-2" vertex="1">
          <mxGeometry x="1232.1899999999991" y="3890" width="370" height="70" as="geometry" />
        </mxCell>
        <mxCell id="D2uAuJA1LaHFy1BpvuMR-180" value="" style="endArrow=none;dashed=1;html=1;rounded=0;exitX=1;exitY=1;exitDx=0;exitDy=0;startArrow=open;startFill=0;startSize=12;entryX=0;entryY=0.5;entryDx=0;entryDy=0;fontSize=20;fontStyle=1;strokeWidth=2;" parent="EfS-6Uey1ptOtGm0Xwp3-2" source="D2uAuJA1LaHFy1BpvuMR-2" target="4xuC2qx4Eaz3mKJdn3-A-22" edge="1">
          <mxGeometry width="50" height="50" relative="1" as="geometry">
            <mxPoint x="978.5950000000026" y="3850.000000000001" as="sourcePoint" />
            <mxPoint x="1238.34999999999" y="3936" as="targetPoint" />
          </mxGeometry>
        </mxCell>
        <mxCell id="4xuC2qx4Eaz3mKJdn3-A-23" value="" style="endArrow=none;dashed=1;html=1;rounded=0;exitX=1;exitY=0;exitDx=0;exitDy=0;startArrow=open;startFill=0;startSize=12;entryX=0;entryY=0.5;entryDx=0;entryDy=0;fontSize=20;fontStyle=1;strokeWidth=2;" parent="EfS-6Uey1ptOtGm0Xwp3-2" source="D2uAuJA1LaHFy1BpvuMR-2" target="D2uAuJA1LaHFy1BpvuMR-4" edge="1">
          <mxGeometry width="50" height="50" relative="1" as="geometry">
            <mxPoint x="958.3199999999997" y="3740.22" as="sourcePoint" />
            <mxPoint x="1254.3199999999997" y="3825.22" as="targetPoint" />
          </mxGeometry>
        </mxCell>
        <mxCell id="4xuC2qx4Eaz3mKJdn3-A-24" value="" style="endArrow=none;dashed=1;html=1;rounded=0;exitX=1;exitY=1;exitDx=0;exitDy=0;startArrow=open;startFill=0;startSize=12;entryX=0;entryY=0.5;entryDx=0;entryDy=0;fontSize=20;fontStyle=1;strokeWidth=2;" parent="EfS-6Uey1ptOtGm0Xwp3-2" source="D2uAuJA1LaHFy1BpvuMR-23" target="D2uAuJA1LaHFy1BpvuMR-63" edge="1">
          <mxGeometry width="50" height="50" relative="1" as="geometry">
            <mxPoint x="915.6000000000004" y="3080.5" as="sourcePoint" />
            <mxPoint x="1108.6000000000004" y="3092.5" as="targetPoint" />
          </mxGeometry>
        </mxCell>
        <mxCell id="4xuC2qx4Eaz3mKJdn3-A-25" value="&lt;font style=&quot;font-size: 20px;&quot;&gt;&amp;lt;&amp;lt;extend&amp;gt;&amp;gt;&lt;/font&gt;" style="text;html=1;align=center;verticalAlign=middle;resizable=0;points=[];autosize=1;strokeColor=none;fillColor=none;fontSize=20;fontStyle=1;strokeWidth=2;" parent="EfS-6Uey1ptOtGm0Xwp3-2" vertex="1">
          <mxGeometry x="1070" y="3840.0000000000005" width="130" height="40" as="geometry" />
        </mxCell>
        <mxCell id="4xuC2qx4Eaz3mKJdn3-A-26" value="&lt;font style=&quot;font-size: 20px;&quot;&gt;Assign Training&lt;/font&gt;" style="ellipse;whiteSpace=wrap;html=1;fontSize=20;fontStyle=1;strokeWidth=2;" parent="EfS-6Uey1ptOtGm0Xwp3-2" vertex="1">
          <mxGeometry x="449.9999999999982" y="6210" width="375" height="80" as="geometry" />
        </mxCell>
        <mxCell id="XnfJU3yrO5rRU0jg5XcV-1" value="&lt;font style=&quot;font-size: 20px;&quot;&gt;Approve KPI&lt;/font&gt;" style="ellipse;whiteSpace=wrap;html=1;fontSize=20;fontStyle=1;strokeWidth=2;" parent="EfS-6Uey1ptOtGm0Xwp3-2" vertex="1">
          <mxGeometry x="1142.5" y="9190" width="374" height="80" as="geometry" />
        </mxCell>
        <mxCell id="D2uAuJA1LaHFy1BpvuMR-111" value="" style="endArrow=none;dashed=1;html=1;dashPattern=1 3;strokeWidth=2;rounded=0;entryX=0;entryY=0.5;entryDx=0;entryDy=0;fontSize=20;startArrow=open;startFill=0;startSize=12;fontStyle=1;exitX=1;exitY=0.5;exitDx=0;exitDy=0;" parent="EfS-6Uey1ptOtGm0Xwp3-2" target="D2uAuJA1LaHFy1BpvuMR-101" edge="1" source="D2uAuJA1LaHFy1BpvuMR-18">
          <mxGeometry width="50" height="50" relative="1" as="geometry">
            <mxPoint x="860" y="1330" as="sourcePoint" />
            <mxPoint x="882.0799999999999" y="1040" as="targetPoint" />
          </mxGeometry>
        </mxCell>
        <mxCell id="M7SqLtU8nE5RaAWXsQSm-2" value="" style="endArrow=none;html=1;rounded=0;exitX=0;exitY=0.5;exitDx=0;exitDy=0;strokeWidth=2;" parent="1" source="M7SqLtU8nE5RaAWXsQSm-1" edge="1">
          <mxGeometry width="50" height="50" relative="1" as="geometry">
            <mxPoint x="-8160" y="4358" as="sourcePoint" />
            <mxPoint x="-9390" y="4090" as="targetPoint" />
          </mxGeometry>
        </mxCell>
        <mxCell id="4xuC2qx4Eaz3mKJdn3-A-5" value="" style="endArrow=none;html=1;rounded=0;entryX=0;entryY=0.5;entryDx=0;entryDy=0;fontSize=20;fontStyle=1;strokeWidth=2;exitX=1;exitY=0.3333333333333333;exitDx=0;exitDy=0;exitPerimeter=0;" parent="1" source="D2uAuJA1LaHFy1BpvuMR-19" target="4xuC2qx4Eaz3mKJdn3-A-4" edge="1">
          <mxGeometry width="50" height="50" relative="1" as="geometry">
            <mxPoint x="-9600" y="9080" as="sourcePoint" />
            <mxPoint x="-8016.5" y="8920.5" as="targetPoint" />
          </mxGeometry>
        </mxCell>
        <mxCell id="4xuC2qx4Eaz3mKJdn3-A-11" value="" style="endArrow=none;endFill=0;endSize=12;html=1;rounded=0;entryX=0;entryY=0.5;entryDx=0;entryDy=0;fontSize=20;fontStyle=1;strokeWidth=2;exitX=1;exitY=0.3333333333333333;exitDx=0;exitDy=0;exitPerimeter=0;" parent="1" source="D2uAuJA1LaHFy1BpvuMR-8" target="4xuC2qx4Eaz3mKJdn3-A-10" edge="1">
          <mxGeometry width="160" relative="1" as="geometry">
            <mxPoint x="-9520" y="790" as="sourcePoint" />
            <mxPoint x="-8707" y="1145" as="targetPoint" />
          </mxGeometry>
        </mxCell>
        <mxCell id="4xuC2qx4Eaz3mKJdn3-A-13" value="" style="endArrow=none;endFill=0;endSize=12;html=1;rounded=0;entryX=0;entryY=0.5;entryDx=0;entryDy=0;fontSize=20;fontStyle=1;strokeWidth=2;exitX=1;exitY=0.3333333333333333;exitDx=0;exitDy=0;exitPerimeter=0;" parent="1" source="D2uAuJA1LaHFy1BpvuMR-8" target="4xuC2qx4Eaz3mKJdn3-A-12" edge="1">
          <mxGeometry width="160" relative="1" as="geometry">
            <mxPoint x="-9520" y="790" as="sourcePoint" />
            <mxPoint x="-8707" y="1145" as="targetPoint" />
          </mxGeometry>
        </mxCell>
        <mxCell id="4xuC2qx4Eaz3mKJdn3-A-15" value="" style="endArrow=none;endFill=0;endSize=12;html=1;rounded=0;entryX=0;entryY=0.5;entryDx=0;entryDy=0;fontSize=20;fontStyle=1;strokeWidth=2;exitX=1;exitY=0.3333333333333333;exitDx=0;exitDy=0;exitPerimeter=0;" parent="1" source="D2uAuJA1LaHFy1BpvuMR-22" target="D2uAuJA1LaHFy1BpvuMR-25" edge="1">
          <mxGeometry width="160" relative="1" as="geometry">
            <mxPoint x="-9304.21" y="2380.01" as="sourcePoint" />
            <mxPoint x="-8564.21" y="2982.01" as="targetPoint" />
          </mxGeometry>
        </mxCell>
        <mxCell id="4xuC2qx4Eaz3mKJdn3-A-17" value="" style="endArrow=none;endFill=0;endSize=12;html=1;rounded=0;entryX=0;entryY=0.5;entryDx=0;entryDy=0;fontSize=20;fontStyle=1;strokeWidth=2;exitX=1;exitY=0.3333333333333333;exitDx=0;exitDy=0;exitPerimeter=0;" parent="1" source="D2uAuJA1LaHFy1BpvuMR-8" target="4xuC2qx4Eaz3mKJdn3-A-16" edge="1">
          <mxGeometry width="160" relative="1" as="geometry">
            <mxPoint x="-9530" y="755" as="sourcePoint" />
            <mxPoint x="-8710" y="1570" as="targetPoint" />
          </mxGeometry>
        </mxCell>
        <mxCell id="4xuC2qx4Eaz3mKJdn3-A-18" value="" style="endArrow=open;dashed=1;html=1;rounded=0;exitX=0;exitY=0.5;exitDx=0;exitDy=0;endFill=0;endSize=12;entryX=0.727;entryY=0.932;entryDx=0;entryDy=0;entryPerimeter=0;fontSize=20;fontStyle=1;strokeWidth=2;" parent="1" source="D2uAuJA1LaHFy1BpvuMR-15" target="D2uAuJA1LaHFy1BpvuMR-14" edge="1">
          <mxGeometry width="50" height="50" relative="1" as="geometry">
            <mxPoint x="-8174.2" y="5469.51" as="sourcePoint" />
            <mxPoint x="-8408.2" y="5389.51" as="targetPoint" />
          </mxGeometry>
        </mxCell>
        <mxCell id="4xuC2qx4Eaz3mKJdn3-A-21" value="" style="endArrow=open;dashed=1;html=1;rounded=0;exitX=0;exitY=0.5;exitDx=0;exitDy=0;endFill=0;endSize=12;entryX=0.654;entryY=0.983;entryDx=0;entryDy=0;entryPerimeter=0;fontSize=20;fontStyle=1;strokeWidth=2;" parent="1" source="D2uAuJA1LaHFy1BpvuMR-106" target="D2uAuJA1LaHFy1BpvuMR-14" edge="1">
          <mxGeometry width="50" height="50" relative="1" as="geometry">
            <mxPoint x="-8201.9" y="5598.8" as="sourcePoint" />
            <mxPoint x="-8468.9" y="5461.8" as="targetPoint" />
          </mxGeometry>
        </mxCell>
        <mxCell id="4xuC2qx4Eaz3mKJdn3-A-27" value="" style="endArrow=none;html=1;rounded=0;exitX=0;exitY=0.5;exitDx=0;exitDy=0;fontSize=20;fontStyle=1;strokeWidth=2;entryX=1;entryY=0.3333333333333333;entryDx=0;entryDy=0;entryPerimeter=0;" parent="1" source="4xuC2qx4Eaz3mKJdn3-A-26" target="D2uAuJA1LaHFy1BpvuMR-13" edge="1">
          <mxGeometry width="50" height="50" relative="1" as="geometry">
            <mxPoint x="-8732" y="6353.5" as="sourcePoint" />
            <mxPoint x="-9532.25" y="5903.5" as="targetPoint" />
          </mxGeometry>
        </mxCell>
        <mxCell id="MR5j944F2QQWmv5RU4YX-2" value="" style="endArrow=none;html=1;rounded=0;strokeWidth=2;exitX=0;exitY=0.3333333333333333;exitDx=0;exitDy=0;exitPerimeter=0;" parent="1" source="D2uAuJA1LaHFy1BpvuMR-141" edge="1">
          <mxGeometry width="50" height="50" relative="1" as="geometry">
            <mxPoint x="-9440" y="4090" as="sourcePoint" />
            <mxPoint x="-9520" y="830.96" as="targetPoint" />
            <Array as="points">
              <mxPoint x="-9530" y="4090" />
            </Array>
          </mxGeometry>
        </mxCell>
        <mxCell id="XnfJU3yrO5rRU0jg5XcV-2" value="" style="endArrow=none;html=1;rounded=0;entryX=0;entryY=0.5;entryDx=0;entryDy=0;fontSize=20;fontStyle=1;strokeWidth=2;exitX=1;exitY=0.3333333333333333;exitDx=0;exitDy=0;exitPerimeter=0;" parent="1" source="D2uAuJA1LaHFy1BpvuMR-19" target="XnfJU3yrO5rRU0jg5XcV-1" edge="1">
          <mxGeometry width="50" height="50" relative="1" as="geometry">
            <mxPoint x="-9665" y="9120" as="sourcePoint" />
            <mxPoint x="-8040" y="9320" as="targetPoint" />
          </mxGeometry>
        </mxCell>
      </root>
    </mxGraphModel>
  </diagram>
</mxfile>
